#N canvas 348 122 464 339 10;
#X obj -353 174 cnv 15 400 150 empty empty Chroma12 2 10 2 25 -203904
-66577 0;
#X obj -149 190 vsl 15 100 0 1 0 0 empty \$0Cv empty 0 -9 0 10 -233017
-33289 -33289 0 1;
#X obj -134 190 vsl 15 100 0 1 0 0 empty \$0Dbv empty 0 -9 0 10 -233017
-33289 -33289 0 1;
#X obj -119 190 vsl 15 100 0 1 0 0 empty \$0Dv empty 0 -9 0 10 -233017
-33289 -33289 0 1;
#X obj -104 190 vsl 15 100 0 1 0 0 empty \$0Ebv empty 0 -9 0 10 -233017
-33289 -33289 0 1;
#X obj -89 190 vsl 15 100 0 1 0 0 empty \$0Ev empty 0 -9 0 10 -233017
-33289 -33289 0 1;
#X obj -74 190 vsl 15 100 0 1 0 0 empty \$0Fv empty 0 -9 0 10 -233017
-33289 -33289 0 1;
#X obj -59 190 vsl 15 100 0 1 0 0 empty \$0Gbv empty 0 -9 0 10 -233017
-33289 -33289 0 1;
#X obj -44 190 vsl 15 100 0 1 0 0 empty \$0Gv empty 0 -9 0 10 -233017
-33289 -33289 0 1;
#X obj -29 190 vsl 15 100 0 1 0 0 empty \$0Abv empty 0 -9 0 10 -233017
-33289 -33289 0 1;
#X obj -14 190 vsl 15 100 0 1 0 0 empty \$0Av empty 0 -9 0 10 -233017
-33289 -33289 0 1;
#X obj 1 190 vsl 15 100 0 1 0 0 empty \$0Bbv empty 0 -9 0 10 -233017
-33289 -33289 0 1;
#X obj 16 190 vsl 15 100 0 1 0 0 empty \$0Bv empty 0 -9 0 10 -233017
-33289 -33289 0 1;
#X obj -240 280 nbx 5 14 -1e+037 1e+037 0 0 \$0Chr-mean-coef \$0Chr-mean-coef-change
Mean-coef 0 -8 0 10 -262144 -1 -1 0 256;
#X obj -239 309 nbx 5 14 -1e+037 1e+037 0 0 \$0Chr-fine-tune \$0Chr-fine-tune-change
Fine-Tune 0 -8 0 10 -262144 -1 -1 0 256;
#X obj -149 307 tgl 15 0 empty \$0C C 2 -7 2 13 -228856 -258113 -1
0 1;
#X obj -134 307 tgl 15 0 empty \$0Db Db 0 -7 2 13 -228856 -258113 -1
0 1;
#X obj -119 307 tgl 15 0 empty \$0D D 4 -7 2 13 -228856 -258113 -1
0 1;
#X obj -104 307 tgl 15 0 empty \$0Eb Eb 2 -7 2 13 -228856 -258113 -1
0 1;
#X obj -89 307 tgl 15 0 empty \$0E E 2 -7 2 13 -228856 -258113 -1 0
1;
#X obj -74 307 tgl 15 0 empty \$0F F 5 -7 2 13 -228856 -258113 -1 0
1;
#X obj -58 307 tgl 15 0 empty \$0Gb Gb 2 -7 2 13 -228856 -258113 -1
0 1;
#X obj -43 307 tgl 15 0 empty \$0G G 4 -7 2 13 -228856 -258113 -1 0
1;
#X obj -28 307 tgl 15 0 empty \$0Ab Ab 0 -7 2 13 -228856 -258113 -1
0 1;
#X obj -13 307 tgl 15 0 empty \$0A A 2 -7 2 13 -228856 -258113 -1 0
1;
#X obj 2 307 tgl 15 0 empty \$0Bb Bb 2 -7 2 13 -228856 -258113 -1 0
1;
#X obj 17 307 tgl 15 0 empty \$0B B 4 -7 2 13 -228856 -258113 -1 0
1;
#X obj -349 200 tgl 15 0 \$0chroma-onoff \$0chroma-onoff-change On/Off
17 7 0 10 -262144 -1 -1 0 1;
#X obj -349 220 tgl 15 0 \$0chroma-interface \$0chroma-interface-change
Interface 17 7 0 10 -262144 -1 -1 0 1;
#X obj -240 248 nbx 5 14 -1e+037 1e+037 0 0 \$0Chr-exponentiation \$0Chr-exponentiation-change
Exponentiation 0 -8 0 10 -262144 -1 -1 0 256;
#X obj -350 261 nbx 5 14 -1e+037 1e+037 0 0 \$0Chr-iniwindow \$0Chr-iniwindow-change
Start-after-peak 0 -8 0 10 -262144 -1 -1 0 256;
#X obj -350 295 nbx 5 14 -1e+037 1e+037 0 0 \$0Chr-endwind \$0Chr-endwind-change
End-after-peak 0 -8 0 10 -262144 -1 -1 0 256;
#X obj -240 190 nbx 5 14 -1e+037 1e+037 0 0 \$0Chr-minfreq \$0Chr-minfreq-change
Min-frequecy 0 -8 0 10 -262144 -1 -1 0 256;
#X obj -240 219 nbx 5 14 -1e+037 1e+037 0 0 \$0Chr-maxfreq \$0Chr-maxfreq-change
Max-frequency 0 -8 0 10 -262144 -1 -1 0 256;
#N canvas 357 30 463 668 everything 0;
#N canvas 693 159 243 260 chromagram 0;
#X obj 12 -82 inlet;
#N canvas 119 32 450 300 list 0;
#N canvas 0 0 199 224 drip 0;
#X obj 53 174 list split 1;
#X obj 53 91 until;
#X obj 53 129 list append;
#X obj 79 58 t b l;
#X obj 135 176 bang;
#X obj 79 31 inlet;
#X obj 53 199 outlet;
#X connect 0 0 6 0;
#X connect 0 1 2 1;
#X connect 0 2 4 0;
#X connect 1 0 2 0;
#X connect 2 0 0 0;
#X connect 3 0 1 0;
#X connect 3 1 2 1;
#X connect 4 0 1 1;
#X connect 5 0 3 0;
#X restore 152 84 pd drip;
#X obj 153 219 list prepend;
#X obj 251 219 t a;
#N canvas 0 0 450 300 dripslow 0;
#X obj 158 196 list split 1;
#X obj 158 171 list append;
#X obj 158 247 outlet;
#X obj 158 47 inlet;
#X obj 239 247 outlet;
#X obj 232 45 inlet;
#X obj 158 82 b;
#X text 275 46 list;
#X text 113 47 bang;
#X text 283 247 EOL;
#X text 99 246 element;
#X obj 239 217 b;
#X connect 0 0 2 0;
#X connect 0 1 1 1;
#X connect 0 2 11 0;
#X connect 1 0 0 0;
#X connect 3 0 6 0;
#X connect 5 0 1 1;
#X connect 6 0 1 0;
#X connect 11 0 4 0;
#X restore 205 141 pd dripslow;
#X obj 268 106 inlet;
#X obj 152 110 t f b;
#X obj 132 254 list;
#X obj 152 182 + 0;
#X obj 133 24 inlet;
#X obj 132 274 outlet;
#X obj 132 50 t b a b;
#X msg 167 157 0;
#X connect 0 0 5 0;
#X connect 1 0 2 0;
#X connect 1 0 6 1;
#X connect 2 0 1 1;
#X connect 3 0 7 1;
#X connect 4 0 3 1;
#X connect 5 0 7 0;
#X connect 5 1 3 0;
#X connect 6 0 9 0;
#X connect 7 0 1 0;
#X connect 8 0 10 0;
#X connect 10 0 6 0;
#X connect 10 1 0 0;
#X connect 10 2 1 1;
#X connect 10 2 11 0;
#X connect 11 0 7 1;
#X restore 12 -1 pd list add;
#X obj 90 0 list;
#N canvas 0 0 579 459 list 0;
#X obj 138 130 route float;
#X obj 116 232 f;
#X obj 116 259 outlet;
#X obj 116 20 inlet;
#N canvas 0 0 450 300 once 0;
#X obj 110 75 inlet;
#X obj 105 187 spigot 1;
#X obj 110 104 t b f;
#X msg 125 151 0;
#X msg 165 99 1;
#X obj 165 63 inlet;
#X obj 102 219 outlet;
#X connect 0 0 2 0;
#X connect 1 0 6 0;
#X connect 2 0 3 0;
#X connect 2 1 1 0;
#X connect 3 0 1 1;
#X connect 4 0 1 1;
#X connect 5 0 4 0;
#X restore 204 158 pd once;
#X obj 177 199 f;
#X obj 146 198 max;
#X obj 116 40 t b a b;
#X text 331 193 prime [min] and [max] with first item once;
#X obj 138 160 t a a;
#N canvas 0 0 199 224 drip 0;
#X obj 53 174 list split 1;
#X obj 53 91 until;
#X obj 53 129 list append;
#X obj 79 58 t b l;
#X obj 135 176 bang;
#X obj 79 31 inlet;
#X obj 53 199 outlet;
#X connect 0 0 6 0;
#X connect 0 1 2 1;
#X connect 0 2 4 0;
#X connect 1 0 2 0;
#X connect 2 0 0 0;
#X connect 3 0 1 0;
#X connect 3 1 2 1;
#X connect 4 0 1 1;
#X connect 5 0 3 0;
#X restore 137 98 pd drip;
#X connect 0 0 9 0;
#X connect 1 0 2 0;
#X connect 3 0 7 0;
#X connect 4 0 6 1;
#X connect 5 0 6 1;
#X connect 6 0 5 0;
#X connect 6 0 1 1;
#X connect 7 0 1 0;
#X connect 7 1 10 0;
#X connect 7 2 4 1;
#X connect 9 0 6 0;
#X connect 9 1 4 0;
#X connect 10 0 0 0;
#X restore 83 110 pd list max;
#X obj -9 81 t l l;
#N canvas 381 107 467 423 list 0;
#X obj 96 43 inlet;
#X obj 285 62 inlet;
#X obj 161 362 outlet;
#X obj 180 258 outlet;
#X obj 161 327 list;
#X obj 285 225 list prepend;
#X obj 364 195 t a;
#X obj 161 165 t b a a b;
#X obj 96 68 route bang;
#X obj 96 93 b;
#X obj 161 94 t b a;
#X obj 161 134 list;
#N canvas 0 0 199 262 drip 0;
#X obj 53 174 list split 1;
#X obj 53 91 until;
#X obj 53 129 list append;
#X obj 79 58 t b l;
#X obj 135 176 bang;
#X obj 79 31 inlet;
#X obj 53 199 outlet;
#X connect 0 0 6 0;
#X connect 0 1 2 1;
#X connect 0 2 4 0;
#X connect 1 0 2 0;
#X connect 2 0 0 0;
#X connect 3 0 1 0;
#X connect 3 1 2 1;
#X connect 4 0 1 1;
#X connect 5 0 3 0;
#X restore 179 218 pd drip;
#X connect 0 0 8 0;
#X connect 1 0 5 0;
#X connect 4 0 2 0;
#X connect 5 0 6 0;
#X connect 5 0 4 1;
#X connect 6 0 5 1;
#X connect 7 0 4 0;
#X connect 7 1 12 0;
#X connect 7 2 4 1;
#X connect 7 3 5 1;
#X connect 8 0 9 0;
#X connect 8 1 10 0;
#X connect 9 0 11 0;
#X connect 10 0 11 0;
#X connect 10 1 11 1;
#X connect 11 0 7 0;
#X connect 12 0 3 0;
#X restore -9 138 pd list map;
#X obj -9 26 list;
#X obj 72 -49 t b b;
#X obj 72 -79 inlet;
#X obj -9 160 outlet;
#X obj 68 136 /;
#X obj -9 52 list-apply pow 2;
#X obj 84 28 r \$0Chr-exponentiation;
#X connect 0 0 1 0;
#X connect 1 0 2 0;
#X connect 1 0 6 1;
#X connect 2 0 1 1;
#X connect 3 0 10 1;
#X connect 4 0 5 0;
#X connect 4 1 3 0;
#X connect 5 0 9 0;
#X connect 5 1 10 0;
#X connect 6 0 11 0;
#X connect 7 0 6 0;
#X connect 7 1 2 0;
#X connect 8 0 7 0;
#X connect 10 0 5 1;
#X connect 11 0 4 0;
#X connect 12 0 11 2;
#X restore 53 371 pd chromagram;
#X obj 120 436 mean;
#X obj 120 457 * 1;
#X obj 119 477 + 0;
#X obj 52 501 list-apply >;
#X obj 97 -15 r \$0chroma-onoff;
#X obj 153 444 r \$0Chr-mean-coef;
#X obj 152 467 r \$0Chr-fine-tune;
#X obj 52 -50 inlet;
#N canvas 71 63 1175 419 chroma-visual 0;
#X obj 13 196 inlet;
#X obj 350 -50 inlet;
#X obj 242 105 s \$0C;
#X obj 280 105 s \$0Db;
#X obj 333 107 s \$0D;
#X obj 378 107 s \$0Eb;
#X obj 427 108 s \$0E;
#X obj 466 110 s \$0F;
#X obj 510 111 s \$0Gb;
#X obj 602 110 s \$0Ab;
#X obj 649 111 s \$0A;
#X obj 558 112 s \$0G;
#X obj 691 112 s \$0Bb;
#X obj 736 115 s \$0B;
#X obj -22 293 s \$0Cv;
#X obj 24 294 s \$0Dbv;
#X obj 71 293 s \$0Dv;
#X obj 116 295 s \$0Ebv;
#X obj 168 295 s \$0Ev;
#X obj 213 297 s \$0Fv;
#X obj 255 295 s \$0Gbv;
#X obj 309 295 s \$0Gv;
#X obj 356 295 s \$0Abv;
#X obj 404 294 s \$0Av;
#X obj 449 295 s \$0Bbv;
#X obj 502 297 s \$0Bv;
#X obj 13 228 unpack f f f f f f f f f f f f;
#X obj 350 -17 unpack f f f f f f f f f f f f;
#N canvas 0 0 450 300 colorir 0;
#X obj 174 88 inlet;
#X msg 168 197 color 10 \$1 42;
#X obj 171 140 sel 0 1;
#X msg 199 171 43;
#X msg 166 172 42;
#X obj 171 115 change;
#X obj 168 223 s \$0Cv;
#X connect 0 0 5 0;
#X connect 1 0 6 0;
#X connect 2 0 4 0;
#X connect 2 1 3 0;
#X connect 3 0 1 0;
#X connect 4 0 1 0;
#X connect 5 0 2 0;
#X restore 73 77 pd colorir;
#N canvas 0 0 450 300 colorir 0;
#X obj 174 88 inlet;
#X msg 168 197 color 10 \$1 42;
#X obj 171 140 sel 0 1;
#X msg 199 171 43;
#X msg 166 172 42;
#X obj 171 115 change;
#X obj 168 223 s \$0Dbv;
#X connect 0 0 5 0;
#X connect 1 0 6 0;
#X connect 2 0 4 0;
#X connect 2 1 3 0;
#X connect 3 0 1 0;
#X connect 4 0 1 0;
#X connect 5 0 2 0;
#X restore 152 79 pd colorir;
#N canvas 0 0 450 300 colorir 0;
#X obj 174 88 inlet;
#X msg 168 197 color 10 \$1 42;
#X obj 171 140 sel 0 1;
#X msg 199 171 43;
#X msg 166 172 42;
#X obj 171 115 change;
#X obj 168 223 s \$0Dv;
#X connect 0 0 5 0;
#X connect 1 0 6 0;
#X connect 2 0 4 0;
#X connect 2 1 3 0;
#X connect 3 0 1 0;
#X connect 4 0 1 0;
#X connect 5 0 2 0;
#X restore 231 77 pd colorir;
#N canvas 0 0 450 300 colorir 0;
#X obj 174 88 inlet;
#X msg 168 197 color 10 \$1 42;
#X obj 171 140 sel 0 1;
#X msg 199 171 43;
#X msg 166 172 42;
#X obj 171 115 change;
#X obj 168 223 s \$0Ebv;
#X connect 0 0 5 0;
#X connect 1 0 6 0;
#X connect 2 0 4 0;
#X connect 2 1 3 0;
#X connect 3 0 1 0;
#X connect 4 0 1 0;
#X connect 5 0 2 0;
#X restore 310 79 pd colorir;
#N canvas 0 0 450 300 colorir 0;
#X obj 174 88 inlet;
#X msg 168 197 color 10 \$1 42;
#X obj 171 140 sel 0 1;
#X msg 199 171 43;
#X msg 166 172 42;
#X obj 171 115 change;
#X obj 168 223 s \$0Ev;
#X connect 0 0 5 0;
#X connect 1 0 6 0;
#X connect 2 0 4 0;
#X connect 2 1 3 0;
#X connect 3 0 1 0;
#X connect 4 0 1 0;
#X connect 5 0 2 0;
#X restore 378 76 pd colorir;
#N canvas 0 0 450 300 colorir 0;
#X obj 174 88 inlet;
#X msg 168 197 color 10 \$1 42;
#X obj 171 140 sel 0 1;
#X msg 199 171 43;
#X msg 166 172 42;
#X obj 171 115 change;
#X obj 168 223 s \$0Fv;
#X connect 0 0 5 0;
#X connect 1 0 6 0;
#X connect 2 0 4 0;
#X connect 2 1 3 0;
#X connect 3 0 1 0;
#X connect 4 0 1 0;
#X connect 5 0 2 0;
#X restore 457 78 pd colorir;
#N canvas 0 0 450 300 colorir 0;
#X obj 174 88 inlet;
#X msg 168 197 color 10 \$1 42;
#X obj 171 140 sel 0 1;
#X msg 199 171 43;
#X msg 166 172 42;
#X obj 171 115 change;
#X obj 168 223 s \$0Gbv;
#X connect 0 0 5 0;
#X connect 1 0 6 0;
#X connect 2 0 4 0;
#X connect 2 1 3 0;
#X connect 3 0 1 0;
#X connect 4 0 1 0;
#X connect 5 0 2 0;
#X restore 534 80 pd colorir;
#N canvas 0 0 450 300 colorir 0;
#X obj 174 88 inlet;
#X msg 168 197 color 10 \$1 42;
#X obj 171 140 sel 0 1;
#X msg 199 171 43;
#X msg 166 172 42;
#X obj 171 115 change;
#X obj 168 223 s \$0Gv;
#X connect 0 0 5 0;
#X connect 1 0 6 0;
#X connect 2 0 4 0;
#X connect 2 1 3 0;
#X connect 3 0 1 0;
#X connect 4 0 1 0;
#X connect 5 0 2 0;
#X restore 612 81 pd colorir;
#N canvas 0 0 450 300 colorir 0;
#X obj 174 88 inlet;
#X msg 168 197 color 10 \$1 42;
#X obj 171 140 sel 0 1;
#X msg 199 171 43;
#X msg 166 172 42;
#X obj 171 115 change;
#X obj 168 223 s \$0Abv;
#X connect 0 0 5 0;
#X connect 1 0 6 0;
#X connect 2 0 4 0;
#X connect 2 1 3 0;
#X connect 3 0 1 0;
#X connect 4 0 1 0;
#X connect 5 0 2 0;
#X restore 683 80 pd colorir;
#N canvas 0 0 450 300 colorir 0;
#X obj 174 88 inlet;
#X msg 168 197 color 10 \$1 42;
#X obj 171 140 sel 0 1;
#X msg 199 171 43;
#X msg 166 172 42;
#X obj 171 115 change;
#X obj 168 223 s \$0Av;
#X connect 0 0 5 0;
#X connect 1 0 6 0;
#X connect 2 0 4 0;
#X connect 2 1 3 0;
#X connect 3 0 1 0;
#X connect 4 0 1 0;
#X connect 5 0 2 0;
#X restore 762 82 pd colorir;
#N canvas 0 0 450 300 colorir 0;
#X obj 174 88 inlet;
#X msg 168 197 color 10 \$1 42;
#X obj 171 140 sel 0 1;
#X msg 199 171 43;
#X msg 166 172 42;
#X obj 171 115 change;
#X obj 168 223 s \$0Bbv;
#X connect 0 0 5 0;
#X connect 1 0 6 0;
#X connect 2 0 4 0;
#X connect 2 1 3 0;
#X connect 3 0 1 0;
#X connect 4 0 1 0;
#X connect 5 0 2 0;
#X restore 839 84 pd colorir;
#N canvas 0 0 450 300 colorir 0;
#X obj 174 88 inlet;
#X msg 168 197 color 10 \$1 42;
#X obj 171 140 sel 0 1;
#X msg 199 171 43;
#X msg 166 172 42;
#X obj 171 115 change;
#X obj 168 223 s \$0Bv;
#X connect 0 0 5 0;
#X connect 1 0 6 0;
#X connect 2 0 4 0;
#X connect 2 1 3 0;
#X connect 3 0 1 0;
#X connect 4 0 1 0;
#X connect 5 0 2 0;
#X restore 917 85 pd colorir;
#X connect 0 0 26 0;
#X connect 1 0 27 0;
#X connect 26 0 14 0;
#X connect 26 1 15 0;
#X connect 26 2 16 0;
#X connect 26 3 17 0;
#X connect 26 4 18 0;
#X connect 26 5 19 0;
#X connect 26 6 20 0;
#X connect 26 7 21 0;
#X connect 26 8 22 0;
#X connect 26 9 23 0;
#X connect 26 10 24 0;
#X connect 26 11 25 0;
#X connect 27 0 2 0;
#X connect 27 0 28 0;
#X connect 27 1 3 0;
#X connect 27 1 29 0;
#X connect 27 2 4 0;
#X connect 27 2 30 0;
#X connect 27 3 5 0;
#X connect 27 3 31 0;
#X connect 27 4 6 0;
#X connect 27 4 32 0;
#X connect 27 5 7 0;
#X connect 27 5 33 0;
#X connect 27 6 8 0;
#X connect 27 6 34 0;
#X connect 27 7 11 0;
#X connect 27 7 35 0;
#X connect 27 8 9 0;
#X connect 27 8 36 0;
#X connect 27 9 10 0;
#X connect 27 9 37 0;
#X connect 27 10 12 0;
#X connect 27 10 38 0;
#X connect 27 11 13 0;
#X connect 27 11 39 0;
#X restore -61 576 pd chroma-visual;
#X obj -63 507 spigot 0;
#X obj 31 544 spigot 0;
#X obj -17 473 r \$0chroma-interface;
#X msg 138 504 0 \$1;
#X obj 138 528 s \$0Chroma;
#X obj 80 120 + 1;
#X obj 52 120 f;
#X obj 52 31 t b f;
#X obj 84 56 sel 1;
#X msg 84 76 1;
#X msg 52 232 1;
#X msg 112 224 0;
#X obj 81 232 t b b;
#X obj -6 262 loadbang;
#X msg -10 286 3;
#X msg 22 287 232;
#X obj 52 167 sel;
#X obj 67 144 r \$0Chr-iniwindow;
#X obj 82 171 r \$0Chr-endwind;
#X obj 67 196 sel;
#N canvas 154 229 317 170 bins 0;
#X obj 138 42 t b f;
#X obj 48 27 inlet;
#X obj 142 0 inlet;
#X obj 49 130 outlet;
#X obj 173 129 outlet;
#X obj 249 87 inlet;
#X obj 48 86 expr int($f1/(44100/$f3)) \; int($f2/(44100/$f3));
#X obj 206 39 loadbang;
#X obj 207 63 \$2;
#X connect 0 0 6 0;
#X connect 0 1 6 1;
#X connect 1 0 6 0;
#X connect 2 0 0 0;
#X connect 5 0 6 2;
#X connect 6 0 3 0;
#X connect 6 1 4 0;
#X connect 7 0 8 0;
#X connect 8 0 6 2;
#X restore 187 264 pd bins;
#X obj 187 221 r \$0Chr-minfreq;
#X obj 207 239 r \$0Chr-maxfreq;
#X msg -6 203 4;
#X msg 17 225 20;
#X obj 53 591 outlet;
#X obj 52 97 spigot 0;
#X obj 52 7 spigot 0;
#X floatatom 228 317 5 0 0 0 - - -;
#X floatatom 193 339 5 0 0 0 - - -;
#X obj 53 318 r~ \$1sinal;
#X obj 53 400 t l l l;
#X obj 152 424 outlet;
#X obj 53 347 spec-chroma12 \$2 \$3;
#X connect 0 0 41 0;
#X connect 1 0 2 0;
#X connect 2 0 3 0;
#X connect 3 0 4 2;
#X connect 3 0 13 0;
#X connect 4 0 11 0;
#X connect 4 0 35 0;
#X connect 5 0 37 1;
#X connect 6 0 2 1;
#X connect 7 0 3 1;
#X connect 8 0 37 0;
#X connect 10 0 9 0;
#X connect 11 0 9 1;
#X connect 12 0 10 1;
#X connect 12 0 11 1;
#X connect 13 0 14 0;
#X connect 15 0 16 1;
#X connect 16 0 15 0;
#X connect 16 0 26 0;
#X connect 17 0 36 0;
#X connect 17 1 18 0;
#X connect 18 0 19 0;
#X connect 19 0 36 1;
#X connect 20 0 43 3;
#X connect 21 0 16 1;
#X connect 21 0 36 1;
#X connect 21 0 43 3;
#X connect 22 0 0 1;
#X connect 22 1 21 0;
#X connect 23 0 24 0;
#X connect 23 0 25 0;
#X connect 23 0 33 0;
#X connect 23 0 34 0;
#X connect 24 0 43 1;
#X connect 25 0 43 2;
#X connect 26 0 20 0;
#X connect 26 1 29 0;
#X connect 27 0 26 1;
#X connect 28 0 29 1;
#X connect 29 0 22 0;
#X connect 30 0 39 0;
#X connect 30 0 43 1;
#X connect 30 1 38 0;
#X connect 30 1 43 2;
#X connect 31 0 30 0;
#X connect 32 0 30 1;
#X connect 33 0 26 1;
#X connect 34 0 29 1;
#X connect 36 0 16 0;
#X connect 37 0 17 0;
#X connect 40 0 43 0;
#X connect 41 0 4 0;
#X connect 41 0 10 0;
#X connect 41 1 1 0;
#X connect 41 2 42 0;
#X connect 43 0 0 0;
#X restore -351 104 pd everything;
#N canvas 0 6 541 313 controls 0;
#X obj 20 47 inlet;
#X text 75 47 chroma parameters;
#X obj 21 118 s \$0Chr-iniwindow-change;
#X obj 108 174 s \$0Chr-minfreq-change;
#X obj 151 198 s \$0Chr-maxfreq-change;
#X obj 180 121 s \$0Chr-exponentiation-change;
#X obj 226 150 s \$0Chr-mean-coef-change;
#X obj 268 172 s \$0Chr-fine-tune-change;
#X obj 62 146 s \$0Chr-endwind-change;
#X obj 20 76 route start end min-freq max-freq exp chroma-mean chroma-fine-tune
on-off interface;
#X obj 338 233 s \$0chroma-interface-change;
#X obj 301 199 s $\$0chroma-onoff-change;
#X connect 0 0 9 0;
#X connect 9 0 2 0;
#X connect 9 1 8 0;
#X connect 9 2 3 0;
#X connect 9 3 4 0;
#X connect 9 4 5 0;
#X connect 9 5 6 0;
#X connect 9 6 7 0;
#X connect 9 7 11 0;
#X connect 9 8 10 0;
#X restore -165 107 pd controls;
#X obj -165 85 inlet;
#X text -295 258 frames;
#X text -295 295 frames;
#X obj -351 79 r \$1onset;
#X obj -351 127 outlet binary vector;
#X obj -268 149 outlet normalized Chromogram;
#N canvas 0 0 450 300 (subpatch) 0;
#X array \$0Chroma 1 float 2;
#X coords 0 1 1 0 180 104 1;
#X restore -150 188 graph;
#X connect 34 0 40 0;
#X connect 34 1 41 0;
#X connect 36 0 35 0;
#X connect 39 0 34 0;
#X coords 0 -1 1 1 401 152 1 -354 173;
