#N canvas 375 238 442 242 10;
#N canvas 521 66 347 463 medianmeanfilter 0;
#X obj 19 166 last-x;
#X obj 19 38 inlet;
#X obj 66 41 inlet;
#X obj 139 101 + 1;
#X obj 50 238 sort;
#X obj -12 433 outlet;
#X obj 50 283 *;
#X obj 203 42 inlet;
#X obj 87 371 +;
#X obj 297 46 inlet;
#X obj 87 345 +;
#X obj 135 273 mean;
#X obj 135 298 *;
#X obj 250 38 inlet;
#X obj 139 43 inlet;
#X obj 88 111 +;
#X obj 88 85 t b f;
#X obj 83 136 + 1;
#X obj 19 189 t l l l;
#X obj -12 412 -;
#X obj 147 429 outlet;
#X obj -11 289 t f f;
#X obj 45 436 outlet;
#X obj 250 344 median;
#X obj 233 296;
#X obj 95 228 expr rint(($f1+1)/2)-1;
#X obj -11 250 list-idx;
#X obj 50 263 list-idx;
#X connect 0 0 18 0;
#X connect 1 0 0 0;
#X connect 2 0 15 0;
#X connect 3 0 26 1;
#X connect 4 0 27 0;
#X connect 6 0 10 0;
#X connect 7 0 6 1;
#X connect 8 0 19 1;
#X connect 8 0 20 0;
#X connect 9 0 8 1;
#X connect 10 0 8 0;
#X connect 11 0 12 0;
#X connect 12 0 10 1;
#X connect 13 0 12 1;
#X connect 14 0 16 0;
#X connect 14 0 3 0;
#X connect 15 0 17 0;
#X connect 16 0 15 0;
#X connect 16 1 15 1;
#X connect 17 0 0 1;
#X connect 17 0 25 0;
#X connect 18 0 26 0;
#X connect 18 1 4 0;
#X connect 18 2 11 0;
#X connect 19 0 5 0;
#X connect 21 0 19 0;
#X connect 21 1 22 0;
#X connect 25 0 27 1;
#X connect 26 0 21 0;
#X connect 27 0 6 0;
#X restore 28 98 pd medianmeanfilter;
#N canvas 347 291 450 300 Block 0;
#X obj 59 78 > 0;
#X obj 69 128 &&;
#X obj 96 75 f;
#X obj 126 75 - 0.25;
#X obj 95 102 <= 0;
#X obj 119 183 sel 1 0;
#X msg 119 211 1;
#X obj 69 275 outlet;
#X obj 159 20 inlet;
#X obj 59 16 inlet;
#X obj 198 112 loadbang;
#X msg 198 133 1;
#X obj 159 48 expr 1.0/$f1;
#X obj 70 150 t f f;
#X connect 0 0 1 0;
#X connect 1 0 13 0;
#X connect 2 0 3 0;
#X connect 2 0 4 0;
#X connect 3 0 2 1;
#X connect 4 0 1 1;
#X connect 5 0 6 0;
#X connect 5 1 2 0;
#X connect 6 0 2 0;
#X connect 8 0 12 0;
#X connect 9 0 0 0;
#X connect 10 0 11 0;
#X connect 11 0 1 1;
#X connect 12 0 3 1;
#X connect 13 0 7 0;
#X connect 13 1 5 0;
#X restore 28 191 pd Block;
#N canvas 271 108 233 494 localmaxima 0;
#X obj 89 33 inlet;
#X floatatom 116 137 5 0 0 0 - - -;
#X floatatom 35 104 5 0 0 0 - - -;
#N canvas 160 270 625 317 last-x-cres 0;
#X obj 137 101 cnv 15 150 80 empty empty empty 20 12 0 14 -233017 -66577
0;
#X floatatom 354 5 5 0 0 2 change-size - -;
#X obj 310 38 t f b;
#X text 362 36 first reset (b) \, then set new length (f).;
#X text 295 121 Right outlet is responsible to first fill the list
;
#X text 296 137 Left outlet then only lets the smaller list pass.;
#X obj 310 -20 inlet;
#X obj 164 75 inlet;
#X obj 310 4 f \$1;
#X obj 164 109 list prepend;
#X obj 164 141 list split \$1;
#X obj 183 174 list split 1;
#X obj 164 208 outlet;
#X connect 1 0 2 0;
#X connect 2 0 10 1;
#X connect 2 1 9 1;
#X connect 6 0 8 0;
#X connect 7 0 9 0;
#X connect 8 0 2 0;
#X connect 9 0 10 0;
#X connect 10 0 11 0;
#X connect 10 0 12 0;
#X connect 10 2 9 1;
#X connect 11 1 9 1;
#X restore 35 159 pd last-x-cres;
#X obj 116 110 + 1;
#X obj 116 77 * 2;
#X obj 35 45 inlet;
#X obj 21 460 outlet;
#X obj 35 206 list split;
#N canvas 0 0 198 181 drip 0;
#X obj 31 115 list split 1;
#X obj 32 67 until;
#X obj 31 91 list append;
#X obj 32 42 t b l;
#X obj 125 116 bang;
#X obj 30 16 inlet;
#X obj 32 144 outlet;
#X obj 126 145 outlet;
#X connect 0 0 6 0;
#X connect 0 1 2 1;
#X connect 0 2 4 0;
#X connect 1 0 2 0;
#X connect 2 0 0 0;
#X connect 3 0 1 0;
#X connect 3 1 2 1;
#X connect 4 0 1 1;
#X connect 4 0 7 0;
#X connect 5 0 3 0;
#X restore 36 346 pd drip;
#X obj 71 402 f;
#X obj 35 182 t l b;
#X obj 36 317 list;
#X msg 69 378 1;
#X obj 36 372 <=;
#X obj 83 228 list split 1;
#X obj 21 435 f;
#X obj 36 401 *;
#X obj 110 272 > 0;
#X obj 35 294 spigot;
#X obj 109 298 sel 0;
#X msg 109 324 0;
#X obj 83 250 t f f;
#X connect 0 0 5 0;
#X connect 0 0 8 1;
#X connect 1 0 3 1;
#X connect 2 0 3 0;
#X connect 3 0 11 0;
#X connect 4 0 1 0;
#X connect 5 0 4 0;
#X connect 6 0 2 0;
#X connect 8 0 19 0;
#X connect 8 1 15 0;
#X connect 9 0 14 0;
#X connect 9 1 16 0;
#X connect 10 0 17 1;
#X connect 11 0 8 0;
#X connect 11 1 13 0;
#X connect 12 0 9 0;
#X connect 13 0 17 1;
#X connect 14 0 17 0;
#X connect 15 0 22 0;
#X connect 15 1 12 1;
#X connect 16 0 7 0;
#X connect 17 0 10 0;
#X connect 17 0 16 1;
#X connect 18 0 19 1;
#X connect 18 0 20 0;
#X connect 19 0 12 0;
#X connect 20 0 21 0;
#X connect 21 0 16 0;
#X connect 22 0 14 1;
#X connect 22 1 18 0;
#X restore 28 156 pd localmaxima;
#X obj 78 18 inlet;
#X obj 127 14 inlet;
#X obj 168 16 inlet;
#X obj 208 15 inlet;
#X obj 251 17 inlet;
#X obj 296 18 inlet;
#X obj 340 20 inlet;
#X obj 377 22 inlet;
#X obj 28 215 outlet;
#X obj 29 15 inlet;
#N canvas 250 290 666 403 lop 0;
#X obj 121 239 *;
#X obj 121 311 +;
#X obj 142 281 *;
#X obj 236 253 -;
#X msg 236 230 1 \$1;
#X obj 121 340 outlet;
#X obj 236 140 * 6.28318;
#X text 304 139 X 2pi;
#X obj 236 172 / 86;
#X obj 234 198 clip 0 1;
#X obj 121 14 inlet dados;
#X obj 236 14 inlet cutoff-freq;
#X obj 370 14 inlet sample-rate;
#X obj 398 40 loadbang;
#X obj 370 141 /;
#X msg 370 118 44100 \$1;
#X obj 370 94 / \$2;
#X obj 370 67 \$1;
#X text 305 193 samplerate/ windowsize;
#X text 279 173 sr = 44100/512 = 86 samples or Hz = 11.61ms;
#X connect 0 0 1 0;
#X connect 1 0 2 0;
#X connect 1 0 5 0;
#X connect 2 0 1 1;
#X connect 3 0 2 1;
#X connect 4 0 3 0;
#X connect 6 0 8 0;
#X connect 8 0 9 0;
#X connect 9 0 4 0;
#X connect 9 0 0 1;
#X connect 10 0 0 0;
#X connect 11 0 6 0;
#X connect 12 0 17 0;
#X connect 13 0 17 0;
#X connect 14 0 8 1;
#X connect 15 0 14 0;
#X connect 16 0 15 0;
#X connect 17 0 16 0;
#X restore 29 50 pd lop;
#X obj 233 215 outlet;
#X obj 168 215 outlet;
#X obj 107 216 outlet;
#X connect 0 0 2 0;
#X connect 0 0 16 0;
#X connect 0 1 15 0;
#X connect 0 2 14 0;
#X connect 1 0 11 0;
#X connect 2 0 1 0;
#X connect 3 0 13 1;
#X connect 4 0 0 1;
#X connect 5 0 0 2;
#X connect 6 0 0 3;
#X connect 7 0 0 4;
#X connect 8 0 0 5;
#X connect 9 0 2 1;
#X connect 10 0 1 1;
#X connect 12 0 13 0;
#X connect 13 0 0 0;
