#N canvas 537 117 587 271 10;
#X declare -lib iem_tab;
#X declare -lib iemmatrix;
#X obj -354 100 cnv 15 570 140 empty empty Timbre 2 10 2 25 -203904
-99865 0;
#X obj -45 115 cnv 15 240 120 empty empty empty 20 12 0 14 -233017
-66577 0;
#N canvas 0 0 450 300 (subpatch) 0;
#X array \$0BarkCoeficients 24 float 0;
#X coords 0 1 23 -1 240 120 1;
#X restore -45 115 graph;
#X obj -348 61 outlet;
#X obj -348 127 tgl 15 0 \$0Bceps-interface \$0Bceps-interface-change
Interface-On/Off 17 7 0 10 -262144 -1 -1 0 1;
#N canvas 676 34 349 346 everything 0;
#X msg -41 56 normalize 1;
#X obj -45 25 loadbang;
#X obj -115 16 spigot 0;
#X obj -112 186 list prepend 0;
#X obj -112 212 list trim;
#X obj -112 238 s \$0BarkCoeficients;
#X msg -65 85 0;
#X obj -115 -34 sel 1;
#X obj -112 144 spigot;
#X obj -78 125 r \$0Bceps-interface;
#X obj -251 121 outlet;
#N canvas 456 21 448 683 trainig 0;
#X obj 79 147 spigot;
#X obj 79 18 inlet;
#X obj 85 635 h_map \$0Bceps-container;
#X obj 127 3 r \$0Bceps-name;
#X obj 163 404 list;
#X obj 105 225 + 1;
#X obj 79 272 <;
#X obj 106 402 list-add;
#X obj 85 429 list;
#X obj 79 173 t b l;
#X obj 57 313 ==;
#X obj 57 341 sel 1;
#X msg 97 75 1;
#X obj 127 85 == 2;
#X obj 112 114 &&;
#X obj 85 516 t b l;
#X obj 292 325 r \$0Bceps-mean-exp;
#X obj 85 563 symbol;
#X msg 85 589 add \$1;
#X obj 94 248 r \$0Bceps-t-num;
#X obj 127 27 t a b b b;
#X obj 117 543 symbol;
#X obj 79 224 f 1;
#X msg 158 189 1;
#X obj 85 493 list-map;
#X obj 144 494 expr pow($f1/float($f2) \, 1.0/$f3);
#X obj 169 375 expr pow($f1 \, $f2);
#X obj 106 375 list-map;
#X obj 127 62 r \$0Bceps-mode;
#X msg 257 589 print;
#X obj 14 262 s \$0count;
#X obj 258 561 r \$0print;
#X obj 190 567 r \$0clear;
#X msg 189 596 clear;
#X connect 0 0 9 0;
#X connect 1 0 0 0;
#X connect 3 0 20 0;
#X connect 4 0 7 1;
#X connect 5 0 22 1;
#X connect 6 0 14 0;
#X connect 7 0 4 0;
#X connect 7 0 8 1;
#X connect 8 0 24 0;
#X connect 9 0 22 0;
#X connect 9 1 27 0;
#X connect 10 0 11 0;
#X connect 11 0 8 0;
#X connect 12 0 14 0;
#X connect 13 0 14 1;
#X connect 14 0 0 1;
#X connect 15 0 17 0;
#X connect 15 1 2 1;
#X connect 16 0 25 2;
#X connect 16 0 26 1;
#X connect 17 0 18 0;
#X connect 18 0 2 0;
#X connect 19 0 6 1;
#X connect 19 0 10 1;
#X connect 19 0 25 1;
#X connect 20 0 21 0;
#X connect 20 1 12 0;
#X connect 20 2 23 0;
#X connect 20 3 4 0;
#X connect 21 0 17 1;
#X connect 22 0 5 0;
#X connect 22 0 6 0;
#X connect 22 0 10 0;
#X connect 22 0 30 0;
#X connect 23 0 22 1;
#X connect 24 0 15 0;
#X connect 24 1 25 0;
#X connect 25 0 24 1;
#X connect 26 0 27 1;
#X connect 27 0 7 0;
#X connect 27 1 26 0;
#X connect 28 0 13 0;
#X connect 29 0 2 0;
#X connect 31 0 29 0;
#X connect 32 0 33 0;
#X connect 33 0 2 0;
#X restore -231 144 pd trainig;
#X obj -70 -8 > 0;
#N canvas 600 0 538 715 recognize 0;
#X obj 67 -25 inlet;
#X obj 67 35 spigot 0;
#X obj 163 543 sqrt;
#X obj 101 110 s \$0shot;
#X obj 101 86 list prepend 0;
#X obj 276 36 table \$0shot 24;
#X obj 275 57 table \$0memory 24;
#X obj 70 470 tab_sub \$0shot \$0memory \$0memory;
#X obj 70 496 tab_mul \$0memory \$0memory \$0memory;
#X obj 70 521 tab_sum \$0memory;
#X obj 182 667 symbol;
#X obj 70 369 h_map \$0Bceps-container;
#X obj 97 438 s \$0memory;
#X obj 70 414 t b l;
#X obj 70 392 list prepend 0;
#X obj 68 293 list split 1;
#X obj 68 266 list;
#X obj 89 237 list;
#X obj 130 685 symbol;
#X msg 244 667 symbol none;
#X obj 68 315 t s s;
#X msg 68 340 get \$1;
#X obj 163 566 t b f b;
#X obj 130 706 outlet;
#X obj 110 184 h_map \$0Bceps-container;
#X msg 110 160 keys;
#X obj 110 210 list prepend;
#X obj 195 211 list;
#X obj 142 22 sel 1;
#X obj 142 45 t b b;
#X obj 112 -3 == 3;
#X obj 202 705 s \$0Bceps-name-display;
#X obj 182 643 sel 1;
#X obj 407 571 r \$0Bceps-treshold;
#X obj 67 62 t b b l b b;
#X obj -7 653 s \$0ceps-value-display;
#X msg 229 148 remove \$1;
#X obj 202 84 r \$0ceps-delete;
#X obj 229 128 symbol;
#X obj 202 106 t b a;
#X obj 112 -25 r \$0Bceps-mode;
#X obj 290 632 print;
#X msg 303 540 2000;
#X obj 288 573 f 2000;
#X obj 182 596 expr if($f1<$f3 && $f1<$f2 \, $f1 \, 2000);
#X obj 182 623 < 2000;
#X obj -8 625 moses 2000;
#X connect 0 0 1 0;
#X connect 1 0 34 0;
#X connect 2 0 22 0;
#X connect 4 0 3 0;
#X connect 7 0 8 0;
#X connect 8 0 9 0;
#X connect 9 1 2 0;
#X connect 10 0 18 1;
#X connect 11 0 14 0;
#X connect 13 0 7 0;
#X connect 13 1 12 0;
#X connect 14 0 13 0;
#X connect 15 0 20 0;
#X connect 15 1 16 1;
#X connect 15 2 18 0;
#X connect 16 0 15 0;
#X connect 17 0 16 1;
#X connect 18 0 23 0;
#X connect 18 0 31 0;
#X connect 19 0 18 1;
#X connect 20 0 21 0;
#X connect 20 1 10 1;
#X connect 21 0 11 0;
#X connect 22 0 16 0;
#X connect 22 1 44 0;
#X connect 22 1 41 0;
#X connect 22 2 43 0;
#X connect 24 0 26 0;
#X connect 25 0 24 0;
#X connect 26 0 27 0;
#X connect 26 0 17 1;
#X connect 27 0 26 1;
#X connect 28 0 29 0;
#X connect 29 0 25 0;
#X connect 29 1 26 1;
#X connect 30 0 1 1;
#X connect 30 0 28 0;
#X connect 32 0 10 0;
#X connect 33 0 44 2;
#X connect 34 0 16 0;
#X connect 34 1 17 0;
#X connect 34 2 4 0;
#X connect 34 3 19 0;
#X connect 34 4 42 0;
#X connect 36 0 24 0;
#X connect 37 0 39 0;
#X connect 38 0 36 0;
#X connect 39 0 29 0;
#X connect 39 1 38 0;
#X connect 40 0 30 0;
#X connect 42 0 43 1;
#X connect 43 0 44 1;
#X connect 44 0 43 1;
#X connect 44 0 45 0;
#X connect 44 0 46 0;
#X connect 45 0 32 0;
#X connect 46 0 35 0;
#X restore -200 163 pd recognize;
#X obj -200 188 outlet;
#X obj -209 20 r~ \$1sinal;
#X obj -115 -62 r \$1onset;
#X obj -208 48 bcepstrum~ \$2 \$3;
#X obj -70 -36 r \$0Bceps-mode;
#X floatatom -167 -15 5 0 0 0 - - -;
#X connect 0 0 17 1;
#X connect 1 0 0 0;
#X connect 2 0 17 1;
#X connect 3 0 4 0;
#X connect 4 0 5 0;
#X connect 6 0 17 1;
#X connect 7 0 2 0;
#X connect 8 0 3 0;
#X connect 9 0 8 1;
#X connect 12 0 2 1;
#X connect 13 0 14 0;
#X connect 15 0 17 0;
#X connect 16 0 7 0;
#X connect 16 0 19 0;
#X connect 17 0 8 0;
#X connect 17 0 10 0;
#X connect 17 0 11 0;
#X connect 17 0 13 0;
#X connect 18 0 12 0;
#X restore -348 40 pd everything;
#N canvas 0 6 499 256 controls 0;
#X obj 16 45 inlet;
#X text 33 70 Timbre parameters;
#X obj 17 117 s \$0Bceps-mean-exp-change;
#X obj 66 141 s \$0Bceps-treshold-change;
#X obj 116 165 s \$0Bceps-t-num-change;
#X obj 178 118 s \$0Bceps-name;
#X obj 165 210 s \$0Bceps-name-display;
#X obj 166 188 symbol;
#X obj 226 139 s \$0ceps-delete;
#X obj 324 198 s \$0Bceps-interface-change;
#X obj 17 90 route mean-exp treshold t-num name delete mode interface
;
#X obj 257 171 s \$0Bceps-mode-change;
#X connect 0 0 10 0;
#X connect 7 0 6 0;
#X connect 10 0 2 0;
#X connect 10 1 3 0;
#X connect 10 2 4 0;
#X connect 10 3 5 0;
#X connect 10 3 7 0;
#X connect 10 4 8 0;
#X connect 10 5 11 0;
#X connect 10 6 9 0;
#X restore -199 63 pd controls;
#X obj -199 37 inlet;
#X obj -273 62 outlet;
#X obj -159 148 nbx 3 14 0 1e+037 0 0 \$0Bceps-t-num \$0Bceps-t-num-change
T-Num 0 -8 0 10 -262144 -1 -1 0 256;
#X obj -214 146 nbx 3 14 -1e+037 1e+037 0 0 \$0Bceps-mean-exp \$0Bceps-mean-exp-change
Mean-exp 0 -8 0 10 -262144 -1 -1 0 256;
#X obj -348 146 vradio 15 1 0 4 \$0Bceps-mode \$0Bceps-modef-change
Off 16 8 0 10 -262144 -1 -1 0;
#X text -333 177 training;
#X text -332 162 values;
#X symbolatom -214 186 18 0 0 0 - #0Bceps-name-display none;
#X obj -212 219 nbx 4 14 0 1e+009 0 0 \$0Bceps-treshold \$0Bceps-treshold-change
Treshold 0 -8 0 10 -262144 -1 -1 0 256;
#X obj -160 218 nbx 4 14 0 1e+009 0 0 none \$0ceps-value-display Distance
0 -8 0 10 -228856 -1 -1 28.27 256;
#X text -332 193 recognition;
#X obj -122 148 nbx 3 14 0 1e+037 0 0 null \$0count Count 3 -8 0 10
-228856 -1 -1 0 256;
#X obj -348 209 bng 15 250 50 0 \$0print empty Print 17 7 0 10 -262144
-1 -1;
#X obj -348 224 bng 15 250 50 0 \$0clear empty Clear 17 7 0 10 -262144
-1 -1;
#X obj -221 112 cnv 15 10 10 empty empty Training 3 8 2 18 -203904
-1 0;
#X obj -218 162 cnv 15 10 10 empty empty Recognition 3 15 2 18 -203904
-1 0;
#X obj -90 221 nbx 4 14 0 1e+009 0 0 none \$1del Del 0 -8 0 10 -228856
-1 -1 0 256;
#X connect 5 0 3 0;
#X connect 5 1 8 0;
#X connect 7 0 6 0;
#X coords 0 -1 1 1 570 140 1 -354 100;
