#N canvas 355 91 584 279 10;
#X declare -lib iem_tab;
#X obj -353 -172 cnv 15 570 120 empty empty Segmentation 4 10 2 25
-261285 -66577 0;
#X obj -349 -126 tgl 15 0 \$0signal empty Sound_Signal 17 7 0 10 -262144
-1 -1 0 0.5;
#X obj 62 -149 tgl 15 0 \$0showtables empty Functions 17 7 0 10 -262144
-1 -1 0 1;
#X obj -349 -147 tgl 15 0 \$0onoff \$0onoff-chage On/Off 17 7 0 10
-258113 -1 -1 0 1;
#X obj 62 -128 tgl 15 0 \$0features-rec \$0features-rec-change Write
17 7 0 10 -262144 -1 -1 0 1;
#X obj -348 -72 nbx 5 14 -1e+037 1e+037 0 0 \$0Treshold-amp \$0background-noise
Amplitude-Treshold(dB) 0 -8 0 10 -262144 -1 -1 0 256;
#X obj -349 -106 tgl 15 0 \$0capture-noise \$0capture-noise-change
Background-noise 17 7 0 10 -262144 -1 -1 0 1;
#X obj 178 -164 bng 35 250 50 0 empty \$0visual-signal-on empty 17
7 0 10 -228856 -257985 -1;
#X obj -158 -169 cnv 15 45 20 empty empty Filter 4 8 2 18 -261285 -1
0;
#X obj -184 -133 nbx 5 14 -1e+037 1e+037 0 0 \$0lop-coef \$0lop-coef-change
Lop-Cutoff 0 -8 0 10 -262144 -1 -1 0 256;
#X obj -116 -132 nbx 5 14 -1e+037 1e+037 0 0 \$0median-coef \$0median-coef-change
Median-coef 0 -8 0 10 -262144 -1 -1 0 256;
#X obj -116 -70 nbx 5 14 -1e+037 1e+037 0 0 \$0fine-tune \$0fine-tune-change
Fine-Tune 0 -8 0 10 -262144 -1 -1 0 256;
#X obj -116 -102 nbx 5 14 -1e+037 1e+037 0 0 \$0mean-coef \$0mean-coef-change
Mean-coef 0 -8 0 10 -262144 -1 -1 0 256;
#X obj -185 -70 nbx 5 14 -1e+037 1e+037 0 0 \$0filter-post-window \$0filter-post-window-change
win(n+x) 0 -8 0 10 -262144 -1 -1 0 256;
#X obj -185 -102 nbx 5 14 -1e+037 1e+037 0 0 \$0filter-pre-window \$0filter-pre-window-change
win(n-x) 0 -8 0 10 -262144 -1 -1 0 256;
#X text -33 -116 (n-x/n+x);
#X obj -30 -132 nbx 5 14 -1e+037 1e+037 0 0 \$0localmax-halfwindow
\$0localmax-halfwindow-change Half-window 0 -8 0 10 -262144 -1 -1 0
256;
#X obj 62 -95 nbx 5 14 -1e+037 1e+037 0 0 \$0Buffer-time \$0buffer-time-change
Buffer-Time(sec) 0 -8 0 10 -262144 -1 -1 0 256;
#X obj 62 -71 tgl 15 0 \$0audio-rec \$0audio-rec-change audio-rec 17
7 0 10 -262144 -1 -1 0 1;
#X obj 178 -122 bng 35 250 50 0 empty \$0visual-signal-off empty 17
7 0 10 -228856 -258113 -1;
#X text 179 -156 ONSET;
#X text 177 -113 OFFSET;
#X symbolatom 136 -68 13 0 0 2 Audio-Buffer #0buffer-actual none;
#X obj -42 -170 cnv 15 70 20 empty empty Local-Max 4 8 2 18 -261285
-1 0;
#X obj 92 -170 cnv 15 70 20 empty empty Rec 4 8 2 18 -261285 -1 0;
#X obj -29 -83 nbx 5 14 -1e+037 1e+037 0 0 \$0block-after-N \$0block-after-N-change
Block 0 -8 0 10 -262144 -1 -1 0 256;
#N canvas 77 0 559 738 Tables 0;
#N canvas 115 0 978 395 guia 0;
#X obj 42 193 inc-dec;
#X obj 264 50 r \$0guia2;
#X obj 156 172 tabread \$0feature;
#X obj 329 151 tabread \$0Onset;
#X obj 235 249 tabread \$0lop;
#X obj 293 197 tabread \$0meanmedianfilter;
#X obj 156 202 s \$0featureval;
#X obj 235 270 s \$0lopval;
#X obj 293 218 s \$0filterval;
#X obj 358 274 s \$0filteredval;
#X obj 329 175 s \$0onsetval;
#X obj 33 102 r \$0inc;
#X obj 58 119 r \$0dec;
#X obj 526 92 t b f;
#X obj 526 151 pack f 5000;
#X msg 526 181 bounds 0 \$2 \$1 0;
#X obj 525 121 f;
#X obj 493 249 s \$0meanmedianfilter;
#X obj 525 211 s \$0lop;
#X obj 586 211 s \$0feature;
#X obj 575 85 r \$0Nblock;
#X obj 120 114 r \$0block-size;
#X obj 525 12 r \$0Feature-Range;
#X obj 806 92 s \$0Nblock;
#X msg 646 148 range 0 \$1;
#X obj 646 170 s \$0guia;
#X obj 705 279 s \$0feature;
#X obj 706 298 s \$0lop;
#X obj 708 322 s \$0meanmedianfilter;
#X msg 698 239 resize \$1;
#X obj 798 20 r \$0Buffer-time;
#X obj 94 268 s \$0Bufferval;
#X obj 94 235 tabread \$1;
#X obj 110 42 r \$0buffer-change;
#X msg 110 63 set \$1;
#X obj 860 123 r \$0buffer-change;
#X msg 797 169 \; \$2 resize \$1;
#X obj 798 145 pack f s;
#X obj 557 42 r \$0features-rec;
#X obj 525 64 spigot;
#X obj 699 343 s \$0Onset;
#X msg 829 281 100;
#X obj 358 250 tabread filtered;
#X obj 684 106 / \$3;
#X obj 94 174 * \$3;
#X obj 806 68 / \$3;
#X floatatom 734 188 9 0 0 0 - - -;
#X obj 798 41 * 44100;
#X obj 684 83 * 44100;
#X obj 684 55 r \$0analysis-time;
#X obj 630 375 s \$0filtered;
#X obj 503 293 s \$0filtered;
#X floatatom 608 329 5 0 0 0 - - -;
#X obj 716 131 s \$0Nblock;
#X connect 0 0 32 0;
#X connect 1 0 3 0;
#X connect 1 0 2 0;
#X connect 1 0 4 0;
#X connect 1 0 5 0;
#X connect 1 0 42 0;
#X connect 1 0 44 0;
#X connect 2 0 6 0;
#X connect 3 0 10 0;
#X connect 4 0 7 0;
#X connect 5 0 8 0;
#X connect 11 0 0 0;
#X connect 12 0 0 1;
#X connect 13 0 16 0;
#X connect 13 1 14 1;
#X connect 14 0 15 0;
#X connect 15 0 17 0;
#X connect 15 0 18 0;
#X connect 15 0 19 0;
#X connect 15 0 51 0;
#X connect 16 0 14 0;
#X connect 20 0 16 1;
#X connect 21 0 44 1;
#X connect 22 0 39 0;
#X connect 24 0 25 0;
#X connect 29 0 26 0;
#X connect 29 0 27 0;
#X connect 29 0 28 0;
#X connect 29 0 40 0;
#X connect 29 0 50 0;
#X connect 30 0 47 0;
#X connect 32 0 31 0;
#X connect 33 0 34 0;
#X connect 34 0 32 0;
#X connect 35 0 37 1;
#X connect 37 0 36 0;
#X connect 38 0 39 1;
#X connect 39 0 13 0;
#X connect 41 0 29 0;
#X connect 42 0 9 0;
#X connect 43 0 24 0;
#X connect 43 0 29 0;
#X connect 43 0 46 0;
#X connect 43 0 53 0;
#X connect 44 0 0 2;
#X connect 44 0 32 0;
#X connect 45 0 23 0;
#X connect 47 0 37 0;
#X connect 47 0 45 0;
#X connect 48 0 43 0;
#X connect 49 0 48 0;
#X connect 52 0 50 0;
#X restore -100 -67 pd guia;
#X obj -97 -28 hsl 395 770 0 1722.66 0 0 \$0guia2 \$0guia empty -2
-8 0 10 -228856 -258113 -1 0 1;
#N canvas 0 0 450 300 (subpatch) 0;
#X array \$0feature 1 float 1;
#A 0 0.00808078;
#X coords 0 20 1 0 400 140 1;
#X restore -99 -29 graph;
#N canvas 0 0 450 300 (subpatch) 0;
#X array \$0lop 1 float 1;
#A 0 1.4013e-045;
#X coords 0 20 1 0 400 140 1;
#X restore -100 127 graph;
#N canvas 0 0 450 300 (subpatch) 0;
#X array \$0meanmedianfilter 1 float 1;
#A 0 0.4;
#X coords 0 20 1 0 400 140 1;
#X restore -99 286 graph;
#N canvas 0 0 450 300 (subpatch) 0;
#X array \$0Onset 1 float 1;
#A 0 0;
#X coords 0 2 1 0 400 140 1;
#X restore -99 602 graph;
#X obj 302 -31 cnv 15 110 770 empty empty empty 20 12 0 14 -257985
-66577 0;
#X obj 302 247 nbx 6 20 -1e+037 1e+037 0 0 empty \$0lopval Lop 0 -8
0 10 -191407 -1 -1 0 256;
#X obj 302 90 nbx 6 20 -1e+037 1e+037 0 0 empty \$0featureval Feature
0 -8 0 10 -191407 -1 -1 0 256;
#X obj 302 407 nbx 6 20 -1e+037 1e+037 0 0 empty \$0filterval Mean_Median_Filter
0 -8 0 10 -191407 -1 -1 0 256;
#X obj 303 562 nbx 6 20 -1e+037 1e+037 0 0 empty \$0filteredval Filtered
0 -8 0 10 -191407 -1 -1 0 256;
#X obj 304 711 nbx 6 20 -1e+037 1e+037 0 0 empty \$0onsetval Onset
0 -8 0 10 -191407 -1 -1 0 256;
#X obj -100 -157 cnv 15 512 126 empty empty empty 20 12 0 14 -257985
-66577 0;
#X obj 304 -51 nbx 6 20 -1e+037 1e+037 0 0 empty \$0Bufferval Sample
0 -8 0 10 -191407 -1 -1 0 256;
#X obj 310 488 nbx 5 20 -1e+037 1e+037 0 0 \$0guia empty Analysis_Block
0 -8 0 10 -191407 -1 -1 0 256;
#X obj 159 -119 bng 20 250 50 0 empty empty Sample_Increment 23 10
0 10 -228856 -1 -1;
#X obj 158 -90 bng 20 250 50 0 empty empty Sample_Decrement 23 10 0
10 -228856 -1 -1;
#X obj -85 -103 nbx 5 20 -1e+037 1e+037 0 0 \$0Feature-Range empty
Feature-Range 0 -8 0 10 -191407 -1 -1 0 256;
#N canvas 0 0 450 300 (subpatch) 0;
#X array \$0filtered 1 float 3;
#A 0 -0.4;
#X coords 0 20 1 0 400 140 1;
#X restore -101 441 graph;
#X restore -249 -49 pd Tables;
#X obj -246 -20 inlet~;
#X obj -247 26 outlet;
#X obj -172 30 outlet;
#N canvas 303 65 656 689 everything 0;
#X obj 5 134 *;
#X obj 24 -157 >;
#N canvas 36 178 370 262 sonoriza 0;
#X obj 200 176 dac~;
#X obj 161 132 *~;
#X obj 162 86 line~;
#X msg 162 65 \$1 5;
#X obj 175 105 osc~ 1000;
#X obj 302 -14 inlet;
#X obj 178 -62 inlet;
#X obj 263 134 *~;
#X obj 264 88 line~;
#X msg 264 67 \$1 5;
#X obj 277 107 osc~ 2000;
#X obj 178 -38 sel 0 1 2;
#X obj 297 8 t b f;
#X msg 174 -12 0;
#X msg 205 -10 1;
#X msg 241 -8 1;
#X obj 164 39 * 0;
#X obj 264 42 * 0;
#X connect 1 0 0 0;
#X connect 1 0 0 1;
#X connect 2 0 1 0;
#X connect 3 0 2 0;
#X connect 4 0 1 1;
#X connect 5 0 12 0;
#X connect 6 0 11 0;
#X connect 7 0 0 1;
#X connect 7 0 0 0;
#X connect 8 0 7 0;
#X connect 9 0 8 0;
#X connect 10 0 7 1;
#X connect 11 0 13 0;
#X connect 11 1 14 0;
#X connect 11 2 15 0;
#X connect 12 0 17 0;
#X connect 12 1 16 1;
#X connect 12 1 16 0;
#X connect 12 1 17 1;
#X connect 13 0 16 0;
#X connect 13 0 17 0;
#X connect 14 0 16 0;
#X connect 15 0 17 0;
#X connect 16 0 3 0;
#X connect 17 0 9 0;
#X restore -141 449 pd sonoriza;
#N canvas 824 193 254 258 rec 0;
#X obj 21 -23 inlet;
#X obj 64 95 f 0;
#X obj 93 95 + 1;
#X msg 79 71 0;
#X obj 21 171 spigot;
#X floatatom 129 138 5 0 0 0 - - -;
#X obj 86 140 <=;
#X obj 64 170 spigot;
#X obj 134 105 - 0;
#X obj 21 47 t f b;
#X obj 134 81 r \$0Nblock;
#X obj 32 207 tabwrite \$0feature;
#X obj 81 45 sel 1;
#X obj 79 -22 inlet;
#X obj 79 6 t f f;
#X obj 20 24 spigot;
#X connect 0 0 15 0;
#X connect 1 0 2 0;
#X connect 1 0 6 0;
#X connect 1 0 7 0;
#X connect 2 0 1 1;
#X connect 3 0 1 1;
#X connect 4 0 11 0;
#X connect 6 0 4 1;
#X connect 6 0 7 1;
#X connect 7 0 11 1;
#X connect 8 0 6 1;
#X connect 8 0 5 0;
#X connect 9 0 4 0;
#X connect 9 1 1 0;
#X connect 10 0 8 0;
#X connect 12 0 3 0;
#X connect 13 0 14 0;
#X connect 14 0 15 1;
#X connect 14 1 12 0;
#X connect 15 0 9 0;
#X restore 35 121 pd rec;
#N canvas 554 174 291 280 rec 0;
#X obj 21 -49 inlet;
#X obj 64 95 f 0;
#X obj 93 95 + 1;
#X obj 21 171 spigot;
#X floatatom 129 138 5 0 0 0 - - -;
#X obj 86 140 <=;
#X obj 64 170 spigot;
#X obj 134 105 - 0;
#X obj 21 47 t f b;
#X obj 79 73 f;
#X obj 32 207 tabwrite \$0Onset;
#X obj 134 80 r \$0Nblock;
#X obj 79 11 sel 1;
#X obj 127 43 * -1;
#X floatatom 192 150 5 0 0 0 - - -;
#X obj 127 15 r \$0localmax-halfwindow;
#X obj 21 20 spigot 0;
#X obj 66 -44 inlet;
#X obj 66 -16 t f f;
#X connect 0 0 16 0;
#X connect 1 0 2 0;
#X connect 1 0 5 0;
#X connect 1 0 6 0;
#X connect 2 0 1 1;
#X connect 3 0 10 0;
#X connect 5 0 3 1;
#X connect 5 0 6 1;
#X connect 6 0 10 1;
#X connect 7 0 5 1;
#X connect 7 0 4 0;
#X connect 8 0 3 0;
#X connect 8 1 1 0;
#X connect 9 0 1 1;
#X connect 11 0 7 0;
#X connect 12 0 9 0;
#X connect 13 0 9 1;
#X connect 13 0 14 0;
#X connect 15 0 13 0;
#X connect 16 0 8 0;
#X connect 17 0 18 0;
#X connect 18 0 16 1;
#X connect 18 1 12 0;
#X restore 23 456 pd rec;
#N canvas 479 170 237 244 rec 0;
#X obj 19 -16 inlet;
#X obj 64 95 f 0;
#X obj 93 95 + 1;
#X msg 79 71 0;
#X obj 21 171 spigot;
#X floatatom 129 138 5 0 0 0 - - -;
#X obj 86 140 <=;
#X obj 64 170 spigot;
#X obj 134 105 - 0;
#X obj 21 47 t f b;
#X obj 32 207 tabwrite \$0lop;
#X obj 134 81 r \$0Nblock;
#X obj 79 47 sel 1;
#X obj 64 -26 inlet;
#X obj 64 2 t f f;
#X obj 22 23 spigot;
#X connect 0 0 15 0;
#X connect 1 0 2 0;
#X connect 1 0 6 0;
#X connect 1 0 7 0;
#X connect 2 0 1 1;
#X connect 3 0 1 1;
#X connect 4 0 10 0;
#X connect 6 0 4 1;
#X connect 6 0 7 1;
#X connect 7 0 10 1;
#X connect 8 0 6 1;
#X connect 8 0 5 0;
#X connect 9 0 4 0;
#X connect 9 1 1 0;
#X connect 11 0 8 0;
#X connect 12 0 3 0;
#X connect 13 0 14 0;
#X connect 14 0 15 1;
#X connect 14 1 12 0;
#X connect 15 0 9 0;
#X restore 140 457 pd rec;
#N canvas 824 193 237 244 rec 0;
#X obj 22 -20 inlet;
#X obj 64 95 f 0;
#X obj 93 95 + 1;
#X msg 79 71 0;
#X obj 21 171 spigot;
#X floatatom 129 138 5 0 0 0 - - -;
#X obj 86 140 <=;
#X obj 64 170 spigot;
#X obj 134 105 - 0;
#X obj 21 47 t f b;
#X obj 32 208 tabwrite \$0meanmedianfilter;
#X obj 134 82 r \$0Nblock;
#X obj 78 47 sel 1;
#X obj 67 -20 inlet;
#X obj 67 8 t f f;
#X obj 22 22 spigot;
#X connect 0 0 15 0;
#X connect 1 0 2 0;
#X connect 1 0 6 0;
#X connect 1 0 7 0;
#X connect 2 0 1 1;
#X connect 3 0 1 1;
#X connect 4 0 10 0;
#X connect 6 0 4 1;
#X connect 6 0 7 1;
#X connect 7 0 10 1;
#X connect 8 0 6 1;
#X connect 8 0 5 0;
#X connect 9 0 4 0;
#X connect 9 1 1 0;
#X connect 11 0 8 0;
#X connect 12 0 3 0;
#X connect 13 0 14 0;
#X connect 14 0 15 1;
#X connect 14 1 12 0;
#X connect 15 0 9 0;
#X restore 203 458 pd rec;
#N canvas 824 193 252 272 rec 0;
#X obj 22 -11 inlet;
#X obj 64 95 f 0;
#X obj 93 95 + 1;
#X msg 79 71 0;
#X obj 21 171 spigot;
#X floatatom 129 138 5 0 0 0 - - -;
#X obj 86 140 <=;
#X obj 64 170 spigot;
#X obj 134 105 - 0;
#X obj 21 47 t f b;
#X obj 134 81 r \$0Nblock;
#X obj 80 47 sel 1;
#X obj 66 -25 inlet;
#X obj 66 3 t f f;
#X obj 21 26 spigot;
#X obj 32 207 tabwrite \$0filtered;
#X connect 0 0 14 0;
#X connect 1 0 2 0;
#X connect 1 0 6 0;
#X connect 1 0 7 0;
#X connect 2 0 1 1;
#X connect 3 0 1 1;
#X connect 4 0 15 0;
#X connect 6 0 4 1;
#X connect 6 0 7 1;
#X connect 7 0 15 1;
#X connect 8 0 6 1;
#X connect 8 0 5 0;
#X connect 9 0 4 0;
#X connect 9 1 1 0;
#X connect 10 0 8 0;
#X connect 11 0 3 0;
#X connect 12 0 13 0;
#X connect 13 0 14 1;
#X connect 13 1 11 0;
#X connect 14 0 9 0;
#X restore 82 455 pd rec;
#X obj 2 423 +;
#N canvas 97 109 321 218 cross 0;
#X obj 47 -131 t f f b;
#X obj 147 -59 f;
#X obj 47 -154 inlet;
#X obj 248 -61 inlet;
#X obj 47 -14 outlet;
#X floatatom 185 15 5 0 0 0 - - -;
#X obj 47 -36 expr if($f1<$f3 && $f2>=$f3 \, 2 \, 0);
#X connect 0 0 6 0;
#X connect 0 1 1 1;
#X connect 0 2 1 0;
#X connect 1 0 6 1;
#X connect 2 0 0 0;
#X connect 3 0 6 2;
#X connect 6 0 4 0;
#X connect 6 0 5 0;
#X restore 63 -132 pd cross;
#N canvas 261 12 478 576 classifica 0;
#X obj -51 110 f 0;
#X obj -22 110 + 1;
#X obj -36 83 f;
#X obj 32 72 * -1;
#X obj 38 -70 r \$0localmax-halfwindow;
#N canvas 253 89 659 505 regressive-cross-finder 0;
#X obj 426 257 f;
#X obj 97 414 outlet;
#X obj 123 154 f;
#X obj 151 155 - 1;
#X obj 97 180 f;
#X obj 123 214 t f f b;
#X obj 119 42 inlet;
#X obj 123 281 expr if(($f1<0 && $f2>=0)||($f1>0 && $f2<=0) \, 1 \,
0);
#X obj 119 107 until;
#X obj 119 74 t b f f;
#X obj 123 303 sel 1;
#X obj 441 222 tabread \$1;
#X obj 322 106 r \$0buffer-change;
#X msg 322 127 set \$1;
#X obj 97 371 list prepend;
#X obj 123 188 tabread \$4;
#X connect 0 0 7 1;
#X connect 2 0 3 0;
#X connect 2 0 4 1;
#X connect 2 0 15 0;
#X connect 3 0 2 1;
#X connect 4 0 14 0;
#X connect 5 0 7 0;
#X connect 5 1 0 1;
#X connect 5 2 0 0;
#X connect 6 0 9 0;
#X connect 7 0 10 0;
#X connect 8 0 2 0;
#X connect 9 0 8 0;
#X connect 9 1 2 1;
#X connect 9 2 11 0;
#X connect 10 0 8 1;
#X connect 10 0 4 0;
#X connect 11 0 0 1;
#X connect 12 0 13 0;
#X connect 12 0 14 1;
#X connect 13 0 11 0;
#X connect 13 0 15 0;
#X connect 14 0 1 0;
#X connect 15 0 5 0;
#X restore 61 295 pd regressive-cross-finder;
#X obj -157 -67 inlet;
#X obj -66 142 f;
#X obj -99 251 gate 2;
#X obj -157 -6 moses 1;
#X obj -99 379 outlet;
#X obj -36 14 r \$0onoff;
#X obj -36 52 sel 1;
#X msg -99 279 note \$1;
#X msg -66 304 silence \$1;
#X obj 169 160 r \$0Nblock;
#X obj 154 206 change;
#X obj 154 185 >=;
#X obj 154 227 sel 1;
#X msg 154 247 0;
#X obj 91 64 r \$0audio-rec;
#X obj 76 145 f 0;
#X obj 105 145 + 1;
#X obj 61 228 spigot;
#X obj 154 268 s \$0audio-rec-change;
#X obj -118 92 t b f b;
#X obj 61 171 f;
#X obj -157 -30 t f b b;
#X obj 101 96 sel 1 0;
#X obj -99 350 list;
#X obj 73 12 +;
#X obj 72 -46 r \$0filter-post-window;
#X obj 73 -13 t b f;
#X obj 89 122 f 0;
#X floatatom 30 127 5 0 0 0 - - -;
#X obj 71 33 + 4;
#X obj -66 170 * \$3;
#X obj 61 199 * \$3;
#X connect 0 0 1 0;
#X connect 0 0 7 1;
#X connect 1 0 0 1;
#X connect 2 0 0 1;
#X connect 3 0 2 1;
#X connect 3 0 33 1;
#X connect 3 0 34 0;
#X connect 4 0 30 0;
#X connect 5 0 29 1;
#X connect 6 0 27 0;
#X connect 7 0 36 0;
#X connect 8 0 13 0;
#X connect 8 1 14 0;
#X connect 9 1 25 0;
#X connect 11 0 12 0;
#X connect 12 0 2 0;
#X connect 13 0 29 0;
#X connect 14 0 29 0;
#X connect 15 0 17 1;
#X connect 16 0 18 0;
#X connect 17 0 16 0;
#X connect 18 0 19 0;
#X connect 19 0 24 0;
#X connect 20 0 23 1;
#X connect 20 0 28 0;
#X connect 21 0 22 0;
#X connect 21 0 17 0;
#X connect 21 0 26 1;
#X connect 22 0 21 1;
#X connect 23 0 5 0;
#X connect 25 0 7 0;
#X connect 25 1 8 0;
#X connect 25 2 26 0;
#X connect 26 0 37 0;
#X connect 27 0 9 0;
#X connect 27 1 0 0;
#X connect 27 2 21 0;
#X connect 28 0 33 0;
#X connect 28 1 29 1;
#X connect 29 0 10 0;
#X connect 30 0 35 0;
#X connect 31 0 32 0;
#X connect 32 0 30 0;
#X connect 32 1 30 1;
#X connect 33 0 21 1;
#X connect 35 0 3 0;
#X connect 36 0 8 1;
#X connect 37 0 23 0;
#X restore 2 527 pd classifica;
#X obj 8 -235 inlet~;
#X obj -140 -55 r \$0audio-rec;
#X obj 82 77 r \$0features-rec;
#X obj 238 410 r \$0features-rec;
#X obj -77 409 r \$0signal;
#X obj 28 191 r \$0filter-pre-window;
#X obj 18 171 r \$0lop-coef;
#X obj 43 213 r \$0filter-post-window;
#X obj 53 233 r \$0median-coef;
#X obj 64 253 r \$0mean-coef;
#X obj 78 277 r \$0fine-tune;
#X obj 88 297 r \$0localmax-halfwindow;
#X obj 108 315 r \$0block-after-N;
#X obj 305 552 outlet;
#X obj 297 248 r \$0showtables;
#X msg 297 277 \; pd-Tables vis \$1;
#N canvas 855 13 221 154 visual 0;
#X obj -113 6 inlet;
#X obj -113 28 change;
#X obj -113 106 s \$0visual-signal-on;
#X obj -113 55 sel 1 2;
#X obj -94 78 s \$0visual-signal-off;
#X connect 0 0 1 0;
#X connect 1 0 3 0;
#X connect 3 0 2 0;
#X connect 3 1 4 0;
#X restore -93 492 pd visual;
#X obj 129 -174 r \$0Treshold-amp;
#X obj 305 483 r \$0Buffername;
#X obj 69 -45 s \$0background-noise;
#X obj 114 -113 r \$0capture-noise;
#X obj 35 99 spigot 0;
#X obj 69 -88 spigot 0;
#X obj 91 31 r \$0onoff;
#X obj 349 549 s \$0buffer-actual;
#X obj 338 502 loadbang;
#X obj 397 497 r \$0buffer-change;
#X obj 305 527 symbol \$1;
#X obj -93 18 r \$0buffer-change;
#X msg -94 42 set \$1;
#X obj 153 555 outlet;
#X obj -140 -26 sel 1 0;
#X msg -121 -4 stop;
#X obj 153 530 r \$0audio-rec;
#X obj 2 551 outlet;
#X obj 99 -67 f;
#X obj 69 -67 max;
#X obj 126 -92 sel 0;
#X msg 126 -71 0;
#N canvas 0 0 450 300 cond 0;
#X msg 203 147 1;
#X obj 176 197 &&;
#X obj 203 62 inlet;
#X obj 159 66 inlet;
#X obj 214 228 sel 1;
#X obj 176 260 outlet;
#X msg 261 225 0;
#X obj 203 125 sel 1;
#X obj 176 235 * 2;
#X floatatom 103 242 5 0 0 0 - - -;
#X obj 304 156 bng 15 250 50 0 empty empty empty 17 7 0 10 -262144
-1 -1;
#X connect 0 0 1 1;
#X connect 1 0 4 0;
#X connect 1 0 8 0;
#X connect 1 0 9 0;
#X connect 2 0 7 0;
#X connect 3 0 1 0;
#X connect 4 0 6 0;
#X connect 6 0 1 1;
#X connect 7 0 0 0;
#X connect 7 0 10 0;
#X connect 8 0 5 0;
#X restore 17 397 pd cond;
#X obj 2 370 t f f;
#X obj 5 50 difflux~ 2048 4;
#X obj 4 337 peakpicking \$3;
#X obj 24 -184 env~ \$2 \$3;
#X obj 233 -11 /;
#X obj 233 -35 list \$2 \$3;
#X obj 208 12 pack;
#X obj 208 -59 t b b;
#X obj 208 -25 \$2;
#X obj 208 -87 loadbang;
#X msg 207 33 list \$1 \$2;
#X obj 25 -212 s~ \$1sinal;
#X obj -64 526 s \$1onset;
#X obj -141 63 tabwrite~ \$4;
#X text 354 -91 \$1 name;
#X text 355 -74 \$2 FFTsize;
#X text 356 -57 \$3 HOPsize;
#X text 357 -40 \$4 audioBuffer;
#X obj -90 289 t b f;
#X obj -90 314 +;
#X obj -90 383 s \$1del;
#X obj -90 338 * \$3;
#X obj -90 358 / 44.1;
#X connect 0 0 53 0;
#X connect 1 0 0 1;
#X connect 8 0 2 0;
#X connect 8 0 10 0;
#X connect 8 0 27 0;
#X connect 8 0 63 0;
#X connect 8 0 4 0;
#X connect 9 0 50 0;
#X connect 10 0 45 0;
#X connect 11 0 52 0;
#X connect 11 0 54 0;
#X connect 11 0 62 0;
#X connect 11 0 64 0;
#X connect 12 0 42 0;
#X connect 13 0 32 1;
#X connect 13 0 3 1;
#X connect 14 0 4 1;
#X connect 14 0 6 1;
#X connect 14 0 5 1;
#X connect 14 0 7 1;
#X connect 15 0 2 1;
#X connect 16 0 53 2;
#X connect 17 0 53 1;
#X connect 18 0 53 3;
#X connect 18 0 69 0;
#X connect 19 0 53 4;
#X connect 20 0 53 5;
#X connect 21 0 53 6;
#X connect 22 0 53 7;
#X connect 22 0 70 0;
#X connect 23 0 53 8;
#X connect 25 0 26 0;
#X connect 28 0 1 1;
#X connect 28 0 9 1;
#X connect 29 0 38 0;
#X connect 31 0 33 1;
#X connect 31 0 48 0;
#X connect 32 0 3 0;
#X connect 33 0 47 0;
#X connect 34 0 52 1;
#X connect 36 0 38 0;
#X connect 37 0 38 0;
#X connect 38 0 35 0;
#X connect 38 0 24 0;
#X connect 39 0 40 0;
#X connect 40 0 64 0;
#X connect 42 0 64 0;
#X connect 42 1 43 0;
#X connect 43 0 64 0;
#X connect 44 0 41 0;
#X connect 46 0 47 1;
#X connect 47 0 46 0;
#X connect 47 0 30 0;
#X connect 48 0 49 0;
#X connect 49 0 47 1;
#X connect 50 0 8 1;
#X connect 51 0 8 0;
#X connect 51 1 50 1;
#X connect 52 0 0 0;
#X connect 52 0 32 0;
#X connect 53 0 51 0;
#X connect 53 1 7 0;
#X connect 53 2 5 0;
#X connect 53 3 6 0;
#X connect 54 0 1 0;
#X connect 54 0 9 0;
#X connect 54 0 33 0;
#X connect 55 0 57 1;
#X connect 56 0 55 0;
#X connect 57 0 61 0;
#X connect 58 0 59 0;
#X connect 58 1 56 0;
#X connect 59 0 57 0;
#X connect 60 0 58 0;
#X connect 61 0 52 1;
#X connect 69 0 70 0;
#X connect 69 1 70 1;
#X connect 70 0 72 0;
#X connect 72 0 73 0;
#X connect 73 0 71 0;
#X restore -247 5 pd everything;
#N canvas 0 6 805 412 controls 0;
#X obj 16 45 inlet;
#X obj 17 127 s \$0buffer-change;
#X obj 17 99 symbol;
#X obj 79 153 s \$0buffer-time-change;
#X obj 205 96 s \$0onoff-chage;
#X text 122 35 Gerais;
#X obj 292 269 s \$0background-noise;
#X obj 326 294 s \$0capture-noise-change;
#X obj 365 319 s \$0lop-coef-change;
#X obj 398 344 s \$0filter-pre-window-change;
#X obj 423 368 s \$0filter-post-window-change;
#X obj 454 261 s \$0median-coef-change;
#X obj 484 293 s \$0mean-coef-change;
#X obj 528 318 s \$0fine-tune-change;
#X obj 584 342 s \$0localmax-halfwindow-change;
#X obj 312 196 route amp-treshold noise-capture lop filter-pre-window
filter-post-window median-coef mean-coef fine-tune local-maxima-window
block-after;
#X obj 616 368 s \$0block-after-N-change;
#X text 405 171 Onset parameters;
#X obj 143 178 s \$0audio-rec-change;
#X obj 16 72 route buffer buffer-time audio-rec on-off analysis-time
;
#X obj 267 136 s \$0analysis-time;
#X connect 0 0 19 0;
#X connect 2 0 1 0;
#X connect 15 0 6 0;
#X connect 15 1 7 0;
#X connect 15 2 8 0;
#X connect 15 3 9 0;
#X connect 15 4 10 0;
#X connect 15 5 11 0;
#X connect 15 6 12 0;
#X connect 15 7 13 0;
#X connect 15 8 14 0;
#X connect 15 9 16 0;
#X connect 19 0 2 0;
#X connect 19 1 3 0;
#X connect 19 2 18 0;
#X connect 19 3 4 0;
#X connect 19 4 20 0;
#X connect 19 5 15 0;
#X restore -137 3 pd controls;
#X obj -137 -23 inlet;
#X obj -210 52 outlet;
#X connect 27 0 30 0;
#X connect 30 0 28 0;
#X connect 30 1 33 0;
#X connect 30 2 29 0;
#X connect 32 0 31 0;
#X coords 0 -1 1 1 572 122 1 -354 -173;
