#N canvas 685 92 497 566 10;
#N canvas 231 171 489 191 Hann-window 0;
#N canvas 0 0 450 300 (subpatch) 0;
#X array \$0-hann 1 float 0;
#X coords 0 1 1 0 200 120 1;
#X restore 262 37 graph;
#X msg 131 70 resize \$1;
#X obj 131 94 s \$0-hann;
#X obj 31 122 expr ((cos($f1*6.283185))* -0.5)+0.5;
#X obj 31 147 tabwrite \$0-hann;
#X obj 31 102 / 2048;
#X obj 30 6 inlet;
#X obj 30 52 until;
#X obj 30 79 f;
#X obj 58 79 + 1;
#X msg 73 55 0;
#X obj 30 27 t f b f;
#X connect 1 0 2 0;
#X connect 3 0 4 0;
#X connect 5 0 3 0;
#X connect 6 0 11 0;
#X connect 7 0 8 0;
#X connect 8 0 9 0;
#X connect 8 0 4 1;
#X connect 8 0 5 0;
#X connect 9 0 8 1;
#X connect 10 0 8 1;
#X connect 11 0 7 0;
#X connect 11 1 10 0;
#X connect 11 2 1 0;
#X restore 384 -5 pd Hann-window;
#X obj 274 -92 loadbang;
#X obj 313 -11 pack f f;
#X msg 313 13 set \$1 \$2;
#X obj 273 -40 \$1;
#X obj 304 -40 \$2;
#X msg 273 65 resize \$1;
#X obj 84 -37 bang~;
#X obj 17 -32 *~;
#X obj 42 -35 *~;
#X obj 23 -10 +~;
#X obj 24 12 sqrt~;
#X obj 17 -68 rfft~;
#X obj 18 -130 inlet~;
#X obj 337 -125 inlet;
#X obj 18 -95 *~;
#X obj 63 -128 tabreceive~ \$0-hann;
#X obj 27 350 outlet;
#X obj 127 123 tabsend~ one\$0;
#X obj 273 130 table one\$0;
#X obj 273 88 s one\$0;
#X obj 312 42 switch~;
#X obj 336 -104 route set;
#X obj 274 -73 t b b;
#X obj 337 -83 unpack;
#X obj 272 151 table two\$0;
#X obj 274 110 s two\$0;
#X obj 24 36 rmstodb~;
#X obj 24 121 tabsend~ two\$0;
#X obj 19 257 dbtorms;
#X obj 127 98 rpole~ 1;
#X obj 25 100 rpole~ 1;
#X msg 123 7 clear;
#X obj 18 190 f;
#X obj 202 189 f;
#X obj 18 214 tabread two\$0;
#X obj 201 215 tabread one\$0;
#N canvas 0 0 450 164 mask 0;
#X obj 34 25 inlet;
#N canvas 0 0 450 300 (subpatch) 0;
#X array \$0mask 1 float 3;
#A 0 0;
#X coords 0 1 1 -1 200 140 1;
#X restore 230 15 graph;
#X msg 34 63 resize \$1 \, const 1 \, 0 0;
#X obj 34 87 s \$0mask;
#X connect 0 0 2 0;
#X connect 2 0 3 0;
#X restore 386 18 pd mask;
#X obj 94 38 tabreceive~ \$0mask;
#X obj 126 75 *~;
#X obj 24 73 *~;
#X obj 26 287 max 1e-038;
#X obj 151 284 max 1e-038;
#X obj 27 310 expr min((10*log10(pow($f1 \, 1/float($f3))/ ($f2/$f3))/-60.0)
\, 1);
#X obj 166 -48 inlet;
#X obj 216 -12 inlet;
#X obj 105 173 f;
#X obj 105 197 tabread two\$0;
#X obj 84 -16 t b b b b b;
#X obj 292 187 f;
#X obj 291 213 tabread one\$0;
#X obj 24 234 -;
#X obj 199 248 -;
#X obj 166 2 max 0;
#X obj 166 -25 - 1;
#X obj 235 48 t b f;
#X obj 236 73 -;
#X connect 1 0 23 0;
#X connect 2 0 3 0;
#X connect 3 0 21 0;
#X connect 4 0 2 0;
#X connect 4 0 0 0;
#X connect 4 0 6 0;
#X connect 4 0 37 0;
#X connect 5 0 2 1;
#X connect 6 0 20 0;
#X connect 6 0 26 0;
#X connect 7 0 48 0;
#X connect 8 0 10 0;
#X connect 9 0 10 1;
#X connect 10 0 11 0;
#X connect 11 0 27 0;
#X connect 11 0 39 0;
#X connect 12 0 8 0;
#X connect 12 0 8 1;
#X connect 12 1 9 0;
#X connect 12 1 9 1;
#X connect 13 0 15 0;
#X connect 14 0 22 0;
#X connect 15 0 12 0;
#X connect 16 0 15 1;
#X connect 22 0 24 0;
#X connect 22 1 21 0;
#X connect 23 0 4 0;
#X connect 23 1 5 0;
#X connect 24 0 4 0;
#X connect 24 1 5 0;
#X connect 27 0 40 0;
#X connect 29 0 41 0;
#X connect 30 0 18 0;
#X connect 31 0 28 0;
#X connect 32 0 30 0;
#X connect 32 0 31 0;
#X connect 33 0 35 0;
#X connect 34 0 36 0;
#X connect 35 0 51 0;
#X connect 36 0 52 0;
#X connect 38 0 39 1;
#X connect 38 0 40 1;
#X connect 39 0 30 0;
#X connect 40 0 31 0;
#X connect 41 0 43 0;
#X connect 42 0 43 1;
#X connect 43 0 17 0;
#X connect 44 0 54 0;
#X connect 45 0 33 1;
#X connect 45 0 34 1;
#X connect 45 0 56 0;
#X connect 46 0 47 0;
#X connect 47 0 51 1;
#X connect 48 0 33 0;
#X connect 48 1 46 0;
#X connect 48 2 34 0;
#X connect 48 3 49 0;
#X connect 48 4 32 0;
#X connect 49 0 50 0;
#X connect 50 0 52 1;
#X connect 51 0 29 0;
#X connect 52 0 42 0;
#X connect 53 0 46 1;
#X connect 53 0 49 1;
#X connect 53 0 56 1;
#X connect 54 0 53 0;
#X connect 55 0 56 0;
#X connect 55 1 56 1;
#X connect 56 0 43 2;
