#N canvas 535 14 463 621 10;
#X declare -lib iem_tab;
#X obj 370 11 bng 15 250 50 0 empty empty insert_sound 17 7 0 10 -262144
-1 -1;
#X obj 374 179 nbx 5 14 -1e+037 1e+037 0 1 scale empty Scale 0 -8 0
10 -262144 -1 -1 5000 256;
#X obj 117 465 tgl 15 0 empty empty on/off 17 7 0 10 -262144 -1 -1
0 1;
#N canvas 557 202 293 285 player 0;
#X obj 51 194 outlet~;
#X obj 52 -20 t b b b;
#X obj 48 158 dac~;
#X obj 52 -42 inlet;
#X obj 73 7 s rec;
#X obj 88 183 s guia;
#X msg 197 61 range 0 \$1;
#X obj 167 114 bang~;
#X obj 167 135 spigot;
#X obj 218 114 tgl 15 0 empty empty empty 17 7 0 10 -262144 -1 -1 0
1;
#X msg 154 79 1;
#X msg 192 84 0;
#X obj 53 60 tabplay~ \$0sound;
#X obj 108 -1 arraysize \$0sound;
#X msg 108 22 \; SpectralRolloff resize \$1;
#X obj 161 165 f;
#X obj 196 166 + 64;
#X connect 1 0 10 0;
#X connect 1 0 12 0;
#X connect 1 1 4 0;
#X connect 1 2 13 0;
#X connect 3 0 1 0;
#X connect 6 0 5 0;
#X connect 7 0 8 0;
#X connect 8 0 15 0;
#X connect 9 0 8 1;
#X connect 10 0 9 0;
#X connect 11 0 9 0;
#X connect 11 0 15 1;
#X connect 12 0 2 0;
#X connect 12 0 2 1;
#X connect 12 0 0 0;
#X connect 12 1 11 0;
#X connect 13 0 14 0;
#X connect 13 0 6 0;
#X connect 15 0 16 0;
#X connect 15 0 5 0;
#X connect 16 0 15 1;
#X restore 23 420 pd player;
#X obj 23 399 bng 15 250 50 0 empty empty Play 17 7 0 10 -262144 -1
-1;
#X obj 19 8 hsl 345 300 0 87736 0 0 empty guia empty -2 -8 0 10 -262144
-258113 -1 0 1;
#N canvas 0 0 450 300 (subpatch) 0;
#X array SpectralRolloff 1 float 3;
#A 0 22050;
#X coords 0 5000 1 0 350 140 1;
#X restore 16 167 graph;
#X floatatom 23 326 8 0 0 1 Sample - -;
#X floatatom 338 327 8 0 0 1 Time(ms) - -;
#X floatatom 180 327 8 0 0 1 Block - -;
#X floatatom 23 371 8 0 0 1 - - -;
#N canvas 344 435 807 210 graph 0;
#X obj 16 31 t b f;
#X obj 16 90 pack f 5000;
#X msg 16 120 bounds 0 \$2 \$1 0;
#X obj 16 10 r scale;
#X obj 574 64 * 44.1;
#X obj 375 43 * 512;
#X text 375 55 FFTSize/interp.;
#X obj 387 140 s guia;
#X obj 191 38 inlet;
#X obj 377 17 inlet;
#X obj 575 36 inlet;
#X obj 289 128 outlet;
#X obj 15 60 arraysize SpectralRolloff;
#X obj 15 150 s SpectralRolloff;
#X obj 192 75 tabread SpectralRolloff;
#X obj 377 77 tabread SpectralRolloff;
#X obj 575 83 tabread SpectralRolloff;
#X connect 0 0 12 0;
#X connect 0 1 1 1;
#X connect 1 0 2 0;
#X connect 2 0 13 0;
#X connect 3 0 0 0;
#X connect 4 0 7 0;
#X connect 4 0 16 0;
#X connect 5 0 7 0;
#X connect 5 0 15 0;
#X connect 8 0 7 0;
#X connect 8 0 14 0;
#X connect 9 0 5 0;
#X connect 10 0 4 0;
#X connect 12 0 1 0;
#X connect 14 0 11 0;
#X connect 15 0 11 0;
#X connect 16 0 11 0;
#X restore 23 346 pd graph --------------------------------------------
;
#N canvas 0 0 450 300 (subpatch) 0;
#X array \$0sound 1 float 2;
#X coords 0 1 1 -1 350 140 1;
#X restore 16 8 graph;
#N canvas 0 0 308 149 rec 0;
#X obj 36 21 inlet;
#X obj 39 78 outlet;
#X obj 85 41 sig~;
#X obj 96 64 r rec;
#X obj 86 86 tabwrite~ SpectralRolloff;
#X connect 0 0 2 0;
#X connect 0 0 1 0;
#X connect 2 0 4 0;
#X connect 3 0 4 0;
#X restore 24 528 pd rec;
#N canvas 136 89 215 205 sample 0;
#X obj 50 143 soundfiler;
#X obj 50 13 inlet;
#X obj 50 34 openpanel;
#X obj 50 100 pack s f;
#X obj 50 54 t a b;
#X obj 95 79 \$0;
#X msg 50 120 read -resize \$1 \$2sound;
#X connect 1 0 2 0;
#X connect 2 0 4 0;
#X connect 3 0 6 0;
#X connect 4 0 3 0;
#X connect 4 1 5 0;
#X connect 5 0 3 1;
#X connect 6 0 0 0;
#X restore 370 29 pd sample;
#X floatatom 24 549 9 0 200 1 - - -;
#X floatatom 70 442 5 0 1 1 Roll-Off_factor - -;
#X text 15 -58 Spectral Roll-Off - Is the frequency so that x % of
the signal energy is contained below.;
#X text 204 508 as in switch~ and block~ objects;
#X text 204 496 window size and overlappling \,;
#X text 204 485 arguments and the message 'set \$1 \$2' are;
#X obj 24 508 Srolloff~ 2048 4;
#X text 15 -28 based on (Peeters \, 2004) Cuidado Paper;
#X msg 130 485 set 1024 2;
#X text 134 542 by Adriano Monteiro (10/2010) - monteiro.adc@gmail.com
;
#X connect 0 0 14 0;
#X connect 2 0 21 2;
#X connect 3 0 21 0;
#X connect 4 0 3 0;
#X connect 7 0 11 0;
#X connect 8 0 11 2;
#X connect 9 0 11 1;
#X connect 11 0 10 0;
#X connect 13 0 15 0;
#X connect 16 0 21 1;
#X connect 21 0 13 0;
#X connect 23 0 21 2;
