#N canvas 176 48 497 642 10;
#X obj 294 -26 loadbang;
#X obj 333 74 pack f f;
#X msg 333 98 set \$1 \$2;
#X obj 293 26 \$1;
#X obj 322 26 \$2;
#X msg 291 151 resize \$1;
#X obj 50 55 *~;
#X obj 75 52 *~;
#X obj 56 77 +~;
#X obj 57 101 sqrt~;
#X obj 50 19 rfft~;
#X obj 51 -43 inlet~;
#X obj 51 -8 *~;
#X obj 96 -41 tabreceive~ \$0-hann;
#X obj 226 108 / 2;
#X obj 58 196 tabsend~ one\$0;
#X obj 290 197 table one\$0;
#X obj 292 173 s one\$0;
#X obj 294 -7 t b b;
#X obj 361 -51 route set;
#X obj 361 -23 unpack;
#X obj 334 122 switch~;
#N canvas 231 171 489 192 Hann-window 0;
#N canvas 0 0 450 300 (subpatch) 0;
#X array \$0-hann 1 float 0;
#X coords 0 1 1 0 200 120 1;
#X restore 262 37 graph;
#X msg 97 59 resize \$1;
#X obj 97 83 s \$0-hann;
#X obj 18 126 expr ((cos($f1*6.283185))* -0.5)+0.5;
#X obj 18 151 tabwrite \$0-hann;
#X obj 18 104 / 2048;
#X obj 18 11 inlet;
#X obj 19 60 until;
#X obj 19 84 f;
#X obj 48 83 + 1;
#X msg 56 59 0;
#X obj 18 38 t f b f;
#X connect 1 0 2 0;
#X connect 3 0 4 0;
#X connect 5 0 3 0;
#X connect 6 0 11 0;
#X connect 7 0 8 0;
#X connect 8 0 9 0;
#X connect 8 0 4 1;
#X connect 8 0 5 0;
#X connect 9 0 8 1;
#X connect 10 0 8 1;
#X connect 11 0 7 0;
#X connect 11 1 10 0;
#X connect 11 2 1 0;
#X connect 11 2 5 1;
#X restore 404 80 pd Hann-window;
#N canvas 0 0 450 189 mask 0;
#N canvas 0 0 450 300 (subpatch) 0;
#X array \$0mask 1 float 3;
#A 0 0;
#X coords 0 1 1 -1 200 140 1;
#X restore 218 42 graph;
#X obj 27 38 inlet;
#X obj 27 86 s \$0mask;
#X msg 27 59 resize \$1 \, const 1 \, 0 0;
#X connect 1 0 3 0;
#X connect 3 0 2 0;
#X restore 406 102 pd mask;
#X obj 58 165 rpole~ 1;
#X obj 154 342 tabread one\$0;
#X obj 80 364 tabread one\$0;
#X obj 114 411 * 0.85;
#X obj 81 434 <= 0.1;
#X obj 154 317 f;
#X obj 226 156 - 1;
#X obj 53 321 f;
#X obj 84 322 + 1;
#X msg 97 300 0;
#X obj 57 221 bang~;
#X obj 40 491 f;
#X obj 53 342 t f f;
#X obj 199 445 / \$1;
#X msg 199 424 44100;
#X obj 200 396 t b f;
#X obj 40 518 *;
#X obj 57 244 t b b b b;
#X msg 132 240 clear;
#X obj 57 142 *~;
#X obj 71 121 tabreceive~ \$0mask;
#X obj 39 539 outlet;
#X obj 146 388 inlet;
#X obj 361 -74 inlet;
#X obj 52 300 until;
#X obj 52 275 f;
#X obj 56 467 spigot;
#X obj 154 289 max 0;
#X obj 0 356 sel \$1;
#X connect 0 0 18 0;
#X connect 1 0 2 0;
#X connect 2 0 21 0;
#X connect 3 0 1 0;
#X connect 3 0 14 0;
#X connect 3 0 22 0;
#X connect 3 0 23 0;
#X connect 3 0 5 0;
#X connect 3 0 39 0;
#X connect 4 0 1 1;
#X connect 5 0 17 0;
#X connect 6 0 8 0;
#X connect 7 0 8 1;
#X connect 8 0 9 0;
#X connect 9 0 43 0;
#X connect 10 0 6 0;
#X connect 10 0 6 1;
#X connect 10 1 7 0;
#X connect 10 1 7 1;
#X connect 11 0 12 0;
#X connect 12 0 10 0;
#X connect 13 0 12 1;
#X connect 14 0 30 0;
#X connect 14 0 49 1;
#X connect 18 0 3 0;
#X connect 18 1 4 0;
#X connect 19 0 20 0;
#X connect 19 1 21 0;
#X connect 20 0 3 0;
#X connect 20 1 4 0;
#X connect 24 0 15 0;
#X connect 25 0 27 0;
#X connect 26 0 28 0;
#X connect 27 0 28 1;
#X connect 28 0 50 1;
#X connect 29 0 25 0;
#X connect 30 0 29 1;
#X connect 30 0 52 1;
#X connect 31 0 32 0;
#X connect 31 0 51 0;
#X connect 31 0 52 0;
#X connect 31 0 36 0;
#X connect 32 0 31 1;
#X connect 33 0 31 1;
#X connect 34 0 41 0;
#X connect 35 0 40 0;
#X connect 36 0 50 0;
#X connect 36 1 26 0;
#X connect 37 0 40 1;
#X connect 38 0 37 0;
#X connect 39 0 38 0;
#X connect 39 1 37 1;
#X connect 40 0 45 0;
#X connect 41 0 49 0;
#X connect 41 1 33 0;
#X connect 41 2 29 0;
#X connect 41 3 42 0;
#X connect 42 0 24 0;
#X connect 43 0 24 0;
#X connect 44 0 43 1;
#X connect 46 0 27 1;
#X connect 47 0 19 0;
#X connect 48 0 31 0;
#X connect 49 0 48 0;
#X connect 50 0 35 1;
#X connect 52 0 35 0;
