#N canvas 568 0 507 703 10;
#X obj 1 -16 *~;
#X obj -1 9 rfft~;
#X obj -9 38 *~;
#X obj 34 42 *~;
#X obj 5 87 sqrt~;
#X obj 5 63 +~;
#X obj 263 -41 loadbang;
#X obj 2 -57 inlet~;
#X obj 297 57 pack f f;
#X obj 15 -37 tabreceive~ \$0-hann;
#X msg 297 81 set \$1 \$2;
#X msg 261 121 resize \$1;
#X obj 259 146 s one\$0;
#X obj 258 165 s two\$0;
#X obj 254 232 table one\$0;
#X obj 254 254 table two\$0;
#X obj 255 275 table three\$0;
#X obj 31 143 tabsend~ one\$0;
#X obj 258 185 s three\$0;
#X obj 262 12 \$1;
#X obj 293 9 \$2;
#X obj 199 295 / 2;
#X obj 262 -21 t b b;
#X obj 342 -61 inlet;
#X obj 343 -40 route set;
#X obj 343 -21 unpack;
#X obj 297 101 switch~;
#N canvas 334 271 450 195 freqwindow 0;
#N canvas 0 0 450 300 (subpatch) 0;
#X array \$0freq 1 float 2;
#X coords 0 44100 1 0 200 140 1;
#X restore 238 17 graph;
#X obj 19 159 tabwrite \$0freq;
#X obj 18 33 inlet;
#X obj 133 95 s \$0freq;
#X msg 134 73 resize \$1;
#X obj 19 57 t f b f;
#X obj 19 81 until;
#X obj 19 104 f;
#X obj 47 106 + 1;
#X obj 19 131 expr ($f1)*(44100.0/float($f2));
#X msg 57 82 0;
#X connect 2 0 5 0;
#X connect 4 0 3 0;
#X connect 5 0 6 0;
#X connect 5 1 10 0;
#X connect 5 2 4 0;
#X connect 5 2 9 1;
#X connect 6 0 7 0;
#X connect 7 0 8 0;
#X connect 7 0 1 1;
#X connect 7 0 9 0;
#X connect 8 0 7 1;
#X connect 9 0 1 0;
#X connect 10 0 7 1;
#X restore 368 58 pd freqwindow;
#N canvas 231 171 489 192 Hann-window 0;
#N canvas 0 0 450 300 (subpatch) 0;
#X array \$0-hann 1 float 0;
#X coords 0 1 1 0 200 120 1;
#X restore 262 37 graph;
#X msg 97 59 resize \$1;
#X obj 97 83 s \$0-hann;
#X obj 18 126 expr ((cos($f1*6.283185))* -0.5)+0.5;
#X obj 18 151 tabwrite \$0-hann;
#X obj 18 104 / 2048;
#X obj 18 11 inlet;
#X obj 19 60 until;
#X obj 19 84 f;
#X obj 48 83 + 1;
#X msg 56 59 0;
#X obj 18 38 t f b f;
#X connect 1 0 2 0;
#X connect 3 0 4 0;
#X connect 5 0 3 0;
#X connect 6 0 11 0;
#X connect 7 0 8 0;
#X connect 8 0 9 0;
#X connect 8 0 4 1;
#X connect 8 0 5 0;
#X connect 9 0 8 1;
#X connect 10 0 8 1;
#X connect 11 0 7 0;
#X connect 11 1 10 0;
#X connect 11 2 1 0;
#X connect 11 2 5 1;
#X restore 369 80 pd Hann-window;
#N canvas 0 0 450 189 mask 0;
#N canvas 0 0 450 300 (subpatch) 0;
#X array \$0mask 1 float 3;
#A 0 0;
#X coords 0 1 1 -1 200 140 1;
#X restore 218 42 graph;
#X obj 27 38 inlet;
#X obj 27 86 s \$0mask;
#X msg 27 59 resize \$1 \, const 1 \, 0 0;
#X connect 1 0 3 0;
#X connect 3 0 2 0;
#X restore 369 102 pd mask;
#X obj 260 206 s four\$0;
#X obj 257 294 table four\$0;
#X obj 4 212 *~;
#X obj 79 169 tabreceive~ \$0freq;
#X obj 63 212 *~;
#X obj 31 117 rpole~ 1;
#X obj 127 209 rpole~ 1;
#X obj 127 235 tabsend~ two\$0;
#X obj 62 238 rpole~ 1;
#X obj 3 259 rpole~ 1;
#X obj 47 404 tabread one\$0;
#X obj 47 382 f;
#X obj 237 375 f;
#X obj 237 397 tabread two\$0;
#X obj 135 380 f;
#X obj 135 402 tabread three\$0;
#X obj 63 264 tabsend~ three\$0;
#X obj 4 285 tabsend~ four\$0;
#X obj 231 423 *;
#X obj 135 433 *;
#X obj 135 461 -;
#X obj 47 450 *;
#X obj 4 461 f;
#X obj 4 483 tabread four\$0;
#X obj 4 511 *;
#X obj 4 535 -;
#X obj 4 557 /;
#X obj 4 596 *;
#X obj 41 564 expr float(1)/\$1;
#X obj 10 352 t b b b b b;
#X msg 87 337 clear;
#X obj 10 323 bang~;
#X obj 4 617 outlet;
#X obj 198 323 - 1;
#X connect 0 0 1 0;
#X connect 1 0 2 0;
#X connect 1 0 2 1;
#X connect 1 1 3 0;
#X connect 1 1 3 1;
#X connect 2 0 5 0;
#X connect 3 0 5 1;
#X connect 4 0 32 0;
#X connect 4 0 35 0;
#X connect 5 0 4 0;
#X connect 6 0 22 0;
#X connect 7 0 0 0;
#X connect 8 0 10 0;
#X connect 9 0 0 1;
#X connect 10 0 26 0;
#X connect 11 0 12 0;
#X connect 11 0 13 0;
#X connect 11 0 18 0;
#X connect 11 0 30 0;
#X connect 19 0 8 0;
#X connect 19 0 21 0;
#X connect 19 0 27 0;
#X connect 19 0 28 0;
#X connect 19 0 29 0;
#X connect 19 0 11 0;
#X connect 20 0 8 1;
#X connect 21 0 49 1;
#X connect 21 0 54 1;
#X connect 21 0 63 0;
#X connect 22 0 19 0;
#X connect 22 1 20 0;
#X connect 23 0 24 0;
#X connect 24 0 25 0;
#X connect 24 1 26 0;
#X connect 25 0 19 0;
#X connect 25 1 20 0;
#X connect 32 0 39 0;
#X connect 33 0 32 1;
#X connect 33 0 34 1;
#X connect 33 0 34 0;
#X connect 33 0 36 0;
#X connect 34 0 38 0;
#X connect 35 0 17 0;
#X connect 36 0 37 0;
#X connect 38 0 46 0;
#X connect 39 0 47 0;
#X connect 40 0 51 0;
#X connect 40 0 58 0;
#X connect 41 0 40 0;
#X connect 42 0 43 0;
#X connect 43 0 48 1;
#X connect 43 0 48 0;
#X connect 43 0 51 1;
#X connect 44 0 45 0;
#X connect 45 0 49 0;
#X connect 48 0 50 1;
#X connect 49 0 50 0;
#X connect 50 0 56 1;
#X connect 51 0 55 1;
#X connect 52 0 53 0;
#X connect 53 0 54 0;
#X connect 54 0 55 0;
#X connect 55 0 56 0;
#X connect 56 0 57 0;
#X connect 57 0 62 0;
#X connect 58 0 57 1;
#X connect 59 0 52 0;
#X connect 59 1 41 0;
#X connect 59 2 44 0;
#X connect 59 3 42 0;
#X connect 59 4 60 0;
#X connect 60 0 39 0;
#X connect 60 0 38 0;
#X connect 60 0 36 0;
#X connect 60 0 35 0;
#X connect 61 0 59 0;
#X connect 63 0 42 1;
#X connect 63 0 44 1;
#X connect 63 0 41 1;
#X connect 63 0 52 1;
