#N canvas 191 -7 928 707 10;
#X obj 409 -67 inlet;
#X obj 624 171 h_vector;
#X obj 693 272 quantize;
#X obj 693 390 ==;
#X msg 624 135 get \$1;
#X obj 624 196 unpack s f f;
#X obj 693 415 sel 1;
#X obj 693 438 f;
#X obj 693 326 list;
#X obj 693 468 list prepend;
#X obj 776 469 list;
#X obj 672 492 list;
#X obj 375 576 outlet;
#X obj 377 -38 + 1;
#X obj 305 -69 loadbang;
#X msg 305 -43 1;
#X obj 693 249 / 44.1;
#X obj 693 299 t b f;
#X obj 624 112 t f f;
#X obj 693 357 list-drip;
#X obj 750 274 r \$0quantization;
#X obj 377 -93 r \$0mode;
#X obj 625 78 list-dripslow;
#X obj 624 43 t b l b;
#X obj 455 263 moses;
#X obj 452 121 h_vector;
#X obj 452 146 unpack s f f;
#X msg 452 97 get \$1;
#X obj 452 45 list-drip;
#X obj 422 238 gate 2;
#X obj 455 204 quantize;
#X obj 455 181 / 44.1;
#X obj 500 180 r \$0quantization;
#X obj 452 69 t f f;
#X obj 482 326 moses;
#X obj 449 301 gate 2;
#X obj 482 359 b;
#X obj 482 387 f;
#X obj 482 411 list prepend;
#X obj 565 412 list;
#X obj 461 435 list;
#X obj 452 22 t l b;
#X obj 387 191 r \$0hip;
#X obj 494 240 r \$0hipval;
#X obj 396 277 r \$0lop;
#X obj 508 293 r \$0lopval;
#X obj 421 217 + 1;
#X obj 420 302 + 1;
#X obj 287 210 loadbang;
#X msg 303 245 0;
#X obj 1 3 cnv 15 263 89 empty empty Duration-Filter 10 6 0 14 -233017
-66577 0;
#X obj 5 74 nbx 5 14 -1e+037 1e+037 0 0 \$0quantization empty quantization
0 -8 0 10 -262144 -1 -1 0 256;
#X text 3 15 Mode;
#X obj 198 34 nbx 5 14 -1e+037 1e+037 0 0 \$0hipval empty Hip 0 -8
0 10 -262144 -1 -1 0 256;
#X obj 178 34 tgl 15 0 \$0hip empty empty 17 7 0 10 -262144 -1 -1 0
1;
#X obj 199 65 nbx 5 14 -1e+037 1e+037 0 0 \$0lopval empty Lop 0 -8
0 10 -262144 -1 -1 0 256;
#X obj 179 65 tgl 15 0 \$0lop empty empty 17 7 0 10 -262144 -1 -1 0
1;
#X obj 4 42 hradio 15 1 0 3 \$0mode empty bypass/Filter/selection 0
-8 0 10 -262144 -1 -1 0;
#X obj 731 164 inlet;
#X obj 791 -63 inlet;
#X obj 791 -39 symbol;
#X msg 791 -9 namespace tempo\$1;
#X obj 376 -12 gate 3;
#X connect 0 0 62 1;
#X connect 1 0 5 0;
#X connect 2 0 17 0;
#X connect 3 0 6 0;
#X connect 4 0 1 0;
#X connect 5 2 16 0;
#X connect 6 0 7 0;
#X connect 7 0 9 0;
#X connect 8 0 19 0;
#X connect 9 0 10 0;
#X connect 9 0 11 1;
#X connect 10 0 9 1;
#X connect 11 0 12 0;
#X connect 13 0 62 0;
#X connect 14 0 15 0;
#X connect 15 0 62 0;
#X connect 16 0 2 0;
#X connect 17 0 8 0;
#X connect 17 1 3 1;
#X connect 18 0 4 0;
#X connect 18 1 7 1;
#X connect 19 0 3 0;
#X connect 19 1 22 0;
#X connect 20 0 2 1;
#X connect 21 0 13 0;
#X connect 22 0 18 0;
#X connect 22 1 11 0;
#X connect 23 0 22 0;
#X connect 23 1 22 1;
#X connect 23 2 9 1;
#X connect 24 1 35 1;
#X connect 25 0 26 0;
#X connect 26 2 31 0;
#X connect 27 0 25 0;
#X connect 28 0 33 0;
#X connect 28 1 40 0;
#X connect 29 0 35 1;
#X connect 29 1 24 0;
#X connect 30 0 29 1;
#X connect 31 0 30 0;
#X connect 32 0 30 1;
#X connect 33 0 27 0;
#X connect 33 1 37 1;
#X connect 34 0 36 0;
#X connect 35 0 36 0;
#X connect 35 1 34 0;
#X connect 36 0 37 0;
#X connect 37 0 38 0;
#X connect 38 0 39 0;
#X connect 38 0 40 1;
#X connect 39 0 38 1;
#X connect 40 0 12 0;
#X connect 41 0 28 0;
#X connect 41 1 38 1;
#X connect 42 0 46 0;
#X connect 43 0 24 1;
#X connect 44 0 47 0;
#X connect 45 0 34 1;
#X connect 46 0 29 0;
#X connect 47 0 35 0;
#X connect 48 0 49 0;
#X connect 49 0 46 0;
#X connect 49 0 47 0;
#X connect 58 0 8 1;
#X connect 59 0 60 0;
#X connect 60 0 61 0;
#X connect 61 0 1 0;
#X connect 61 0 25 0;
#X connect 62 0 12 0;
#X connect 62 1 41 0;
#X connect 62 2 23 0;
#X coords 0 -1 1 1 265 95 2 0 0;
