#N canvas 7 120 921 535 10;
#X obj 723 164 inlet;
#X obj 637 165 inlet;
#N canvas 0 102 603 567 filtro 0;
#X obj 60 233 h_vector;
#X msg 59 206 get \$1;
#X obj 60 302 list-map2;
#X obj 118 354 f;
#X obj 60 326 b;
#X obj 146 396 sel 1;
#X obj 148 422 f;
#X obj 60 -31 r \$0notch-filter;
#X msg 196 202 1;
#X obj 148 447 list prepend;
#X obj 231 447 t a;
#X obj 125 470 list;
#X obj 125 498 outlet;
#X obj 133 303 <=;
#X obj 133 327 *;
#X obj 158 327 f;
#X obj 131 62 inlet;
#X obj 215 126 inlet;
#X obj 119 375 t b f;
#X obj 60 80 list;
#X obj 59 105 list-drip;
#X obj 111 24 inlet;
#X obj 432 226 <= 1;
#X obj 459 177 >= 0;
#X obj 432 154 t f f;
#X obj 432 254 &&;
#X obj 370 166 list-map;
#X obj 464 201 r \$0lop2;
#X obj 479 153 r \$0hip2;
#X obj 370 281 s \$0filtered;
#X obj 60 47 t b b b;
#X obj 370 136 list;
#X obj 391 109 r \$0proportion;
#X obj 60 -4 t b l;
#X obj 59 127 t f f f b;
#X obj 205 291 h_vector;
#X msg 206 270 get \$1;
#X obj 205 333 sel silence;
#X obj 205 312 list split 1;
#X msg 229 154 namespace tempo\$1;
#X msg 212 173 namespace chroma\$1;
#X connect 0 0 2 0;
#X connect 1 0 0 0;
#X connect 2 0 4 0;
#X connect 2 1 13 0;
#X connect 3 0 18 0;
#X connect 4 0 3 0;
#X connect 5 0 6 0;
#X connect 6 0 9 0;
#X connect 7 0 33 0;
#X connect 8 0 14 1;
#X connect 9 0 10 0;
#X connect 9 0 11 1;
#X connect 10 0 9 1;
#X connect 11 0 12 0;
#X connect 13 0 2 2;
#X connect 13 0 14 0;
#X connect 14 0 3 1;
#X connect 14 0 15 0;
#X connect 15 0 14 1;
#X connect 16 0 19 1;
#X connect 17 0 39 0;
#X connect 17 0 40 0;
#X connect 18 0 20 0;
#X connect 18 1 5 0;
#X connect 19 0 20 0;
#X connect 20 0 34 0;
#X connect 20 1 11 0;
#X connect 21 0 31 0;
#X connect 22 0 25 0;
#X connect 23 0 25 1;
#X connect 24 0 22 0;
#X connect 24 1 23 0;
#X connect 25 0 26 1;
#X connect 26 0 29 0;
#X connect 26 1 24 0;
#X connect 27 0 22 1;
#X connect 28 0 23 1;
#X connect 30 0 19 0;
#X connect 30 1 9 1;
#X connect 31 0 26 0;
#X connect 32 0 31 1;
#X connect 33 0 30 0;
#X connect 33 1 2 1;
#X connect 34 0 1 0;
#X connect 34 1 36 0;
#X connect 34 2 6 1;
#X connect 34 3 8 0;
#X connect 35 0 38 0;
#X connect 36 0 35 0;
#X connect 37 0 6 0;
#X connect 38 0 37 0;
#X connect 39 0 35 0;
#X connect 40 0 0 0;
#X restore 607 321 pd filtro;
#X obj 591 367 outlet;
#N canvas 528 15 462 514 patten-recognition 0;
#X msg 115 232 get \$1;
#X obj 94 477 outlet;
#X obj 115 260 h_vector;
#X obj 115 365 sel 1;
#X obj 115 32 list-drip;
#X obj 115 201 t f f;
#X obj 115 287 list prepend get;
#X obj 115 313 list trim;
#X obj 307 134 list trim;
#X obj 245 35 inlet;
#X obj 335 16 inlet;
#X obj 115 387 f;
#X obj 115 424 list prepend;
#X obj 203 427 t a;
#X obj 94 450 list;
#X obj 115 338 h_set \$0patterns;
#X obj 307 108 list prepend add;
#X obj 245 62 route clear;
#X msg 245 114 clear;
#X obj 115 -17 inlet;
#X obj 115 100 h_vector;
#X obj 115 126 list split 1;
#X obj 115 176 f;
#X obj 71 154 sel silence note;
#X obj 115 51 t f f;
#X obj 71 177 f;
#X msg 322 43 namespace tempo\$1;
#X msg 335 65 namespace chroma\$1;
#X msg 114 73 get \$1;
#X obj 115 7 t f b;
#X connect 0 0 2 0;
#X connect 2 0 6 0;
#X connect 3 0 11 0;
#X connect 4 0 24 0;
#X connect 4 1 14 0;
#X connect 5 0 0 0;
#X connect 5 1 11 1;
#X connect 6 0 7 0;
#X connect 7 0 15 0;
#X connect 8 0 15 0;
#X connect 9 0 17 0;
#X connect 10 0 26 0;
#X connect 10 0 27 0;
#X connect 11 0 12 0;
#X connect 12 0 13 0;
#X connect 12 0 14 1;
#X connect 13 0 12 1;
#X connect 14 0 1 0;
#X connect 15 0 3 0;
#X connect 16 0 8 0;
#X connect 17 0 18 0;
#X connect 17 1 16 0;
#X connect 18 0 15 0;
#X connect 19 0 29 0;
#X connect 20 0 21 0;
#X connect 21 0 23 0;
#X connect 22 0 5 0;
#X connect 23 0 25 0;
#X connect 23 1 22 0;
#X connect 24 0 28 0;
#X connect 24 1 22 1;
#X connect 24 1 25 1;
#X connect 25 0 12 0;
#X connect 26 0 20 0;
#X connect 27 0 2 0;
#X connect 28 0 20 0;
#X connect 29 0 4 0;
#X connect 29 1 12 1;
#X restore 669 320 pd patten-recognition;
#X obj 591 146 r \$0mode;
#X obj 723 186 symbol;
#X obj 849 212 inlet;
#X obj 600 99 s \$0region;
#X obj 704 49 * 70;
#X obj 601 -120 r \$0lop;
#X obj 600 49 * 70;
#X obj 708 -128 r \$0hip;
#X obj 601 -38 expr ((1-$f1)*0.95)+0.3;
#X obj 704 19 expr (1-$f1)-(1-$f2);
#X obj 762 -4 t b f;
#X obj 601 -65 spigot;
#X obj 658 -106 t b f;
#X obj 705 -62 spigot;
#X obj 753 -35 s \$0hip2;
#X obj 619 -6 s \$0lop2;
#X obj 660 -82 >=;
#N canvas 0 0 450 472 graph 0;
#X obj 158 73 list-drip;
#X obj 158 128 h_vector;
#X msg 158 102 get \$1;
#X obj 159 157 list-add;
#X obj 214 157 list;
#X obj 137 255 list-map;
#X obj 200 255 /;
#X obj 137 180 list;
#X obj 250 313 list trim;
#X obj 250 290 list prepend 0;
#X obj 250 339 s \$0_Pitch-per-Event;
#X obj 157 10 inlet;
#X obj 330 83 inlet;
#X obj 135 373 s \$0proportion;
#X msg 245 155 0;
#X obj 157 31 t l b;
#X obj 162 224 list-minmax;
#X obj 137 201 t l l;
#X msg 328 130 namespace chroma\$1;
#X connect 0 0 2 0;
#X connect 0 1 7 0;
#X connect 1 0 3 0;
#X connect 2 0 1 0;
#X connect 3 0 4 0;
#X connect 3 0 7 1;
#X connect 4 0 3 1;
#X connect 5 0 9 0;
#X connect 5 0 13 0;
#X connect 5 1 6 0;
#X connect 6 0 5 1;
#X connect 7 0 17 0;
#X connect 8 0 10 0;
#X connect 9 0 8 0;
#X connect 11 0 15 0;
#X connect 12 0 18 0;
#X connect 15 0 0 0;
#X connect 15 1 3 1;
#X connect 15 1 14 0;
#X connect 16 1 6 1;
#X connect 17 0 5 0;
#X connect 17 1 16 0;
#X connect 18 0 1 0;
#X restore 664 229 pd graph;
#X obj 591 167 + 1;
#X obj 591 207 gate 3;
#X obj 615 289 r \$0settings;
#X obj 609 256 b;
#X obj 637 186 t l l l;
#X obj 528 245 b;
#X msg 339 301 1;
#X obj 528 270 del 500;
#X obj 1 3 cnv 15 525 114 empty empty Harmonic-Filter 10 6 0 14 -203904
-66577 0;
#X obj 176 101 tgl 13 0 empty empty empty 17 7 0 10 -262144 -1 -1 0
1;
#X obj 216 101 tgl 13 0 empty empty empty 17 7 0 10 -262144 -1 -1 0
1;
#X obj 229 101 tgl 13 0 empty empty empty 17 7 0 10 -262144 -1 -1 0
1;
#X obj 242 101 tgl 13 0 empty empty empty 17 7 0 10 -262144 -1 -1 0
1;
#X obj 255 101 tgl 13 0 empty empty empty 17 7 0 10 -262144 -1 -1 0
1;
#X obj 268 101 tgl 13 0 empty empty empty 17 7 0 10 -262144 -1 -1 0
1;
#X obj 282 101 tgl 13 0 empty empty empty 17 7 0 10 -262144 -1 -1 0
1;
#X obj 296 101 tgl 13 0 empty empty empty 17 7 0 10 -262144 -1 -1 0
1;
#X obj 308 101 tgl 13 0 empty empty empty 17 7 0 10 -262144 -1 -1 0
1;
#X obj 321 101 tgl 13 0 empty empty empty 17 7 0 10 -262144 -1 -1 0
1;
#X obj 174 256 s \$0notch-filter;
#X obj 176 -106 r \$0filtered;
#X text 176 86 C;
#X obj 178 20 cnv 5 12 68 empty empty empty 20 12 0 14 -228856 -66577
0;
#X obj 191 20 cnv 5 12 68 empty empty empty 20 12 0 14 -203904 -66577
0;
#X obj 204 20 cnv 5 12 68 empty empty empty 20 12 0 14 -228856 -66577
0;
#X obj 217 20 cnv 5 12 68 empty empty empty 20 12 0 14 -203904 -66577
0;
#X obj 230 20 cnv 5 12 68 empty empty empty 20 12 0 14 -228856 -66577
0;
#X obj 243 20 cnv 5 12 68 empty empty empty 20 12 0 14 -203904 -66577
0;
#X obj 256 20 cnv 5 12 68 empty empty empty 20 12 0 14 -228856 -66577
0;
#X obj 269 20 cnv 5 12 68 empty empty empty 20 12 0 14 -203904 -66577
0;
#X obj 282 20 cnv 5 12 68 empty empty empty 20 12 0 14 -228856 -66577
0;
#X obj 295 20 cnv 5 12 68 empty empty empty 20 12 0 14 -203904 -66577
0;
#X obj 308 20 cnv 5 12 68 empty empty empty 20 12 0 14 -228856 -66577
0;
#X obj 321 20 cnv 5 12 68 empty empty empty 20 12 0 14 -203904 -66577
0;
#X obj 167 22 vsl 10 65 0 1 0 0 \$0lop empty Lop -20 30 0 10 -162280
-1 -1 0 0;
#X obj 496 22 vsl 10 65 0 1 0 0 \$0hip empty Hip 11 30 0 10 -162280
-1 -1 0 0;
#N canvas 0 0 450 300 (subpatch) 0;
#X array \$0_Pitch-per-Event 24 float 3;
#A 0 0 0 1 0 0 1 0 1 1 1 1 1 0 0 0 0 0 0 0 0 0 0 0 0;
#X coords 0 1 24 0 318 70 1;
#X restore 177 20 graph;
#X obj 189 101 tgl 13 0 empty empty empty 17 7 0 10 -262144 -1 -1 0
1;
#X obj 203 101 tgl 13 0 empty empty empty 17 7 0 10 -262144 -1 -1 0
1;
#X obj 174 235 list;
#X obj 5 40 vradio 15 1 0 3 \$0mode empty MODE -3 -8 0 10 -262144 -1
-1 0;
#X text 22 39 Bypass;
#X text 21 54 Filter;
#X text 23 71 Pattern-Mathicng;
#X obj 338 20 cnv 5 12 68 empty empty empty 20 12 0 14 -228856 -66577
0;
#X obj 351 20 cnv 5 12 68 empty empty empty 20 12 0 14 -203904 -66577
0;
#X obj 364 20 cnv 5 12 68 empty empty empty 20 12 0 14 -228856 -66577
0;
#X obj 377 20 cnv 5 12 68 empty empty empty 20 12 0 14 -203904 -66577
0;
#X obj 390 20 cnv 5 12 68 empty empty empty 20 12 0 14 -228856 -66577
0;
#X obj 403 20 cnv 5 12 68 empty empty empty 20 12 0 14 -203904 -66577
0;
#X obj 416 20 cnv 5 12 68 empty empty empty 20 12 0 14 -228856 -66577
0;
#X obj 429 20 cnv 5 12 68 empty empty empty 20 12 0 14 -203904 -66577
0;
#X obj 442 20 cnv 5 12 68 empty empty empty 20 12 0 14 -228856 -66577
0;
#X obj 455 20 cnv 5 12 68 empty empty empty 20 12 0 14 -203904 -66577
0;
#X obj 468 20 cnv 5 12 68 empty empty empty 20 12 0 14 -228856 -66577
0;
#X obj 481 20 cnv 5 12 68 empty empty empty 20 12 0 14 -203904 -66577
0;
#X text 188 86 C+;
#X text 217 86 D-;
#X text 230 86 D;
#X text 202 86 Db;
#X text 241 86 D+;
#X text 255 86 Eb;
#X text 269 86 E-;
#X text 283 85 E;
#X text 309 85 F;
#X text 322 85 F+;
#X text 334 86 Gb;
#X text 349 86 G-;
#X text 363 86 G;
#X text 375 86 G+;
#X text 388 86 Ab;
#X text 401 86 A-;
#X text 416 85 A;
#X text 427 85 A+;
#X text 439 85 Bb;
#X text 454 85 B-;
#X text 467 85 B;
#X text 479 86 B+;
#X text 294 85 F-;
#X obj 334 101 tgl 13 0 empty empty empty 17 7 0 10 -262144 -1 -1 0
1;
#X obj 374 101 tgl 13 0 empty empty empty 17 7 0 10 -262144 -1 -1 0
1;
#X obj 387 101 tgl 13 0 empty empty empty 17 7 0 10 -262144 -1 -1 0
1;
#X obj 400 101 tgl 13 0 empty empty empty 17 7 0 10 -262144 -1 -1 0
1;
#X obj 414 101 tgl 13 0 empty empty empty 17 7 0 10 -262144 -1 -1 0
1;
#X obj 426 101 tgl 13 0 empty empty empty 17 7 0 10 -262144 -1 -1 0
1;
#X obj 440 101 tgl 13 0 empty empty empty 17 7 0 10 -262144 -1 -1 0
1;
#X obj 454 101 tgl 13 0 empty empty empty 17 7 0 10 -262144 -1 -1 0
1;
#X obj 468 101 tgl 13 0 empty empty empty 17 7 0 10 -262144 -1 -1 0
1;
#X obj 481 101 tgl 13 0 empty empty empty 17 7 0 10 -262144 -1 -1 0
1;
#X obj 347 101 tgl 13 0 empty empty empty 17 7 0 10 -262144 -1 -1 0
1;
#X obj 361 101 tgl 13 0 empty empty empty 17 7 0 10 -262144 -1 -1 0
1;
#X msg 600 72 pos 178 \$1;
#X obj 178 29 cnv 1 316 44 empty \$0region empty 20 12 0 14 -257985
-66577 0;
#X msg 704 74 vis_size 316 \$1;
#X obj 176 -85 unpack f f f f f f f f f f f f f f f f f f f f f f f
f;
#X obj 176 172 pack f f f f f f f f f f f f f f f f f f f f f f f f
;
#X obj 174 214 del 300;
#X obj 176 139 bondo 24 -------------------------------------------
;
#X obj 174 193 t b l;
#X connect 0 0 6 0;
#X connect 1 0 27 0;
#X connect 2 0 3 0;
#X connect 4 0 3 0;
#X connect 5 0 23 0;
#X connect 6 0 22 1;
#X connect 6 0 2 2;
#X connect 6 0 4 2;
#X connect 7 0 4 1;
#X connect 9 0 116 0;
#X connect 10 0 16 0;
#X connect 10 0 21 0;
#X connect 11 0 114 0;
#X connect 12 0 17 0;
#X connect 12 0 18 0;
#X connect 13 0 11 0;
#X connect 14 0 9 0;
#X connect 15 0 14 0;
#X connect 15 1 14 1;
#X connect 16 0 13 0;
#X connect 16 0 15 0;
#X connect 16 0 20 0;
#X connect 16 0 28 0;
#X connect 17 0 21 0;
#X connect 17 1 21 1;
#X connect 18 0 14 0;
#X connect 18 0 19 0;
#X connect 18 0 28 0;
#X connect 21 0 16 1;
#X connect 21 0 18 1;
#X connect 23 0 24 0;
#X connect 24 0 3 0;
#X connect 24 1 26 0;
#X connect 24 2 4 0;
#X connect 25 0 2 0;
#X connect 26 0 2 0;
#X connect 27 0 24 1;
#X connect 27 1 2 1;
#X connect 27 2 22 0;
#X connect 28 0 30 0;
#X connect 29 0 63 0;
#X connect 30 0 2 0;
#X connect 30 0 29 0;
#X connect 32 0 120 0;
#X connect 33 0 120 3;
#X connect 34 0 120 4;
#X connect 35 0 120 5;
#X connect 36 0 120 6;
#X connect 37 0 120 7;
#X connect 38 0 120 8;
#X connect 39 0 120 9;
#X connect 40 0 120 10;
#X connect 41 0 120 11;
#X connect 43 0 117 0;
#X connect 60 0 120 1;
#X connect 61 0 120 2;
#X connect 62 0 42 0;
#X connect 102 0 120 12;
#X connect 103 0 120 15;
#X connect 104 0 120 16;
#X connect 105 0 120 17;
#X connect 106 0 120 18;
#X connect 107 0 120 19;
#X connect 108 0 120 20;
#X connect 109 0 120 21;
#X connect 110 0 120 22;
#X connect 111 0 120 23;
#X connect 112 0 120 13;
#X connect 113 0 120 14;
#X connect 114 0 8 0;
#X connect 116 0 8 0;
#X connect 117 0 32 0;
#X connect 117 1 60 0;
#X connect 117 2 61 0;
#X connect 117 3 33 0;
#X connect 117 4 34 0;
#X connect 117 5 35 0;
#X connect 117 6 36 0;
#X connect 117 7 37 0;
#X connect 117 8 38 0;
#X connect 117 9 39 0;
#X connect 117 10 40 0;
#X connect 117 11 41 0;
#X connect 117 12 102 0;
#X connect 117 13 112 0;
#X connect 117 14 113 0;
#X connect 117 15 103 0;
#X connect 117 16 104 0;
#X connect 117 17 105 0;
#X connect 117 18 106 0;
#X connect 117 19 107 0;
#X connect 117 20 108 0;
#X connect 117 21 109 0;
#X connect 117 22 110 0;
#X connect 117 23 111 0;
#X connect 118 0 121 0;
#X connect 119 0 62 0;
#X connect 120 0 118 0;
#X connect 120 1 118 1;
#X connect 120 2 118 2;
#X connect 120 3 118 3;
#X connect 120 4 118 4;
#X connect 120 5 118 5;
#X connect 120 6 118 6;
#X connect 120 7 118 7;
#X connect 120 8 118 8;
#X connect 120 9 118 9;
#X connect 120 10 118 10;
#X connect 120 11 118 11;
#X connect 120 12 118 12;
#X connect 120 13 118 13;
#X connect 120 14 118 14;
#X connect 120 15 118 15;
#X connect 120 16 118 16;
#X connect 120 17 118 17;
#X connect 120 18 118 18;
#X connect 120 19 118 19;
#X connect 120 20 118 20;
#X connect 120 21 118 21;
#X connect 120 22 118 22;
#X connect 120 23 118 23;
#X connect 121 0 119 0;
#X connect 121 1 62 1;
#X coords 0 -1 1 1 527 120 1 0 0;
