#N canvas 264 17 963 600 10;
#X obj 108 -338 f 0;
#X obj 64 34 h_vector;
#X obj 566 -203 inlet;
#X obj 74 -144 + 1;
#X obj 45 -144 f 0;
#X msg 64 -76 resize \$1;
#X obj 45 -172 t b a;
#X msg 16 -78 set \$1;
#X obj 64 -99 + 1;
#X obj 39 -488 inlet;
#X obj 39 -460 spigot;
#X obj 485 79 inlet;
#X msg 113 -151 getsize;
#X msg 144 124 clear;
#X msg 7 -143 0;
#X obj 566 -155 t b s;
#X obj 165 -192 / 44100;
#X obj 1 212 cnv 10 351 56 empty empty RECORDER 2 10 2 20 -203904 -66577
0;
#X obj 215 235 nbx 5 14 -1e+037 1e+037 0 0 empty empty Total-event
55 8 0 10 -262144 -1 -1 0 256;
#X obj 215 218 nbx 5 14 -1e+037 1e+037 0 0 empty empty Total-time 55
8 0 10 -262144 -1 -1 0 256;
#X obj 3 236 tgl 15 0 \$0onoff empty Open/Close 17 7 0 10 -262144 -1
-1 0 1;
#X obj 214 253 cnv 10 10 10 empty \$0slice-buffer one 0 6 0 18 -203904
-33289 0;
#X obj 45 -121 t f f;
#X obj 633 -164 s \$0slice-buffer;
#X msg 633 -188 label \$1;
#X obj 4 255 bng 15 250 50 0 empty empty Clean-Buffer 17 7 0 10 -262144
-1 -1;
#X obj 163 -77 list;
#X obj 163 -50 s global-recording;
#X text 125 -421 ver questao buffer;
#X obj 93 -310 -;
#X msg 75 103 print;
#X obj 45 -202 list;
#X obj 64 -323 f 0;
#X obj 219 77 h_vector;
#X msg 592 -132 namespace tempo\$1;
#X msg 597 -107 namespace chroma\$1;
#X msg 615 -86 namespace timbre\$1;
#X obj 364 82 h_vector;
#X obj 219 26 f;
#X obj 363 32 f;
#X msg 218 49 set \$1;
#X msg 362 57 set \$1;
#X obj 220 -244 t b l;
#X obj 219 -307 inlet;
#X obj 363 -218 t b l;
#X obj 360 -294 inlet;
#X msg 210 116 print;
#X msg 445 124 print;
#X obj 220 -273 spigot;
#X obj 358 -256 spigot;
#X obj 39 -431 list split 2;
#X obj 39 -400 unpack s f;
#X obj 45 -264 pack s f f;
#X obj 46 -234 list;
#X obj 83 -481 r \$0onoff;
#X obj 254 -292 r \$0onoff;
#X obj 402 -286 r \$0onoff;
#X obj 136 218 bng 15 250 50 0 empty empty Duration 17 7 0 10 -262144
-1 -1;
#X obj 136 236 bng 15 250 50 0 empty empty Harmony 17 7 0 10 -262144
-1 -1;
#X obj 136 253 bng 15 250 50 0 empty empty Timbre 17 7 0 10 -262144
-1 -1;
#X obj 566 -178 symbol;
#X obj 57 -375 t f b f f b f;
#X connect 0 0 29 1;
#X connect 1 1 3 0;
#X connect 1 1 18 0;
#X connect 2 0 60 0;
#X connect 3 0 4 1;
#X connect 4 0 3 0;
#X connect 4 0 22 0;
#X connect 5 0 1 0;
#X connect 5 0 33 0;
#X connect 5 0 37 0;
#X connect 6 0 4 0;
#X connect 6 1 1 1;
#X connect 7 0 1 0;
#X connect 8 0 5 0;
#X connect 8 0 18 0;
#X connect 8 0 26 0;
#X connect 9 0 10 0;
#X connect 10 0 50 0;
#X connect 11 0 20 0;
#X connect 12 0 1 0;
#X connect 13 0 1 0;
#X connect 13 0 33 0;
#X connect 13 0 37 0;
#X connect 14 0 4 1;
#X connect 14 0 0 1;
#X connect 14 0 32 1;
#X connect 15 0 12 0;
#X connect 15 1 34 0;
#X connect 15 1 24 0;
#X connect 15 1 26 1;
#X connect 15 1 35 0;
#X connect 15 1 36 0;
#X connect 16 0 19 0;
#X connect 22 0 7 0;
#X connect 22 0 38 1;
#X connect 22 0 39 1;
#X connect 22 1 8 0;
#X connect 24 0 23 0;
#X connect 25 0 13 0;
#X connect 25 0 14 0;
#X connect 26 0 27 0;
#X connect 29 0 52 2;
#X connect 30 0 1 0;
#X connect 31 0 6 0;
#X connect 32 0 52 1;
#X connect 34 0 1 0;
#X connect 35 0 33 0;
#X connect 36 0 37 0;
#X connect 38 0 40 0;
#X connect 39 0 41 0;
#X connect 40 0 33 0;
#X connect 41 0 37 0;
#X connect 42 0 38 0;
#X connect 42 1 33 1;
#X connect 43 0 48 0;
#X connect 44 0 39 0;
#X connect 44 1 37 1;
#X connect 45 0 49 0;
#X connect 46 0 33 0;
#X connect 47 0 37 0;
#X connect 48 0 42 0;
#X connect 49 0 44 0;
#X connect 50 0 51 0;
#X connect 50 1 31 1;
#X connect 51 0 52 0;
#X connect 51 1 61 0;
#X connect 52 0 53 0;
#X connect 53 0 31 0;
#X connect 54 0 10 1;
#X connect 55 0 48 1;
#X connect 56 0 49 1;
#X connect 57 0 30 0;
#X connect 58 0 46 0;
#X connect 59 0 47 0;
#X connect 60 0 15 0;
#X connect 61 0 32 1;
#X connect 61 1 32 0;
#X connect 61 2 29 0;
#X connect 61 3 0 1;
#X connect 61 4 0 0;
#X connect 61 5 16 0;
#X coords 0 -1 1 1 353 60 1 0 210;
