#N canvas 679 144 380 438 10;
#X obj 165 113 list-drip;
#X obj 165 221 list split 1;
#X obj 165 35 inlet;
#X obj 132 371 outlet;
#X obj 132 65 gate 2;
#X obj 165 90 t l b;
#X obj 243 305 t a;
#X obj 144 333 list;
#X obj 1 3 cnv 15 103 34 empty empty Silence-Filter-2 14 6 2 12 -203904
-66577 0;
#X obj 1 20 tgl 15 0 empty empty Bypass/Filter 17 7 0 10 -262144 -1
-1 1 1;
#X obj 165 190 h_vector;
#X msg 165 166 get \$1;
#X obj 244 79 inlet;
#X obj 244 102 symbol;
#X obj 132 43 + 1;
#X obj 132 3 loadbang;
#X msg 132 23 0;
#X obj 165 275 f;
#X obj 165 134 t f f;
#X obj 165 304 list prepend;
#X msg 244 124 namespace tempo\$1;
#X obj 353 306 t a;
#X obj 272 304 list prepend;
#X obj 165 250 sel note silence;
#X obj 272 278 f;
#X obj 251 345 list;
#X obj 251 370 outlet;
#X obj 207 14 inlet;
#X connect 0 0 18 0;
#X connect 0 1 7 0;
#X connect 0 1 25 0;
#X connect 1 0 23 0;
#X connect 2 0 4 1;
#X connect 4 0 3 0;
#X connect 4 1 5 0;
#X connect 5 0 0 0;
#X connect 5 1 19 1;
#X connect 5 1 22 1;
#X connect 5 1 25 1;
#X connect 5 1 7 1;
#X connect 6 0 19 1;
#X connect 7 0 3 0;
#X connect 9 0 14 0;
#X connect 10 0 1 0;
#X connect 11 0 10 0;
#X connect 12 0 13 0;
#X connect 13 0 20 0;
#X connect 14 0 4 0;
#X connect 15 0 16 0;
#X connect 16 0 14 0;
#X connect 17 0 19 0;
#X connect 18 0 11 0;
#X connect 18 1 17 1;
#X connect 18 1 24 1;
#X connect 19 0 6 0;
#X connect 19 0 7 1;
#X connect 20 0 10 0;
#X connect 21 0 22 1;
#X connect 22 0 21 0;
#X connect 22 0 25 1;
#X connect 23 0 17 0;
#X connect 23 1 24 0;
#X connect 24 0 22 0;
#X connect 25 0 26 0;
#X connect 27 0 9 0;
#X coords 0 -1 1 1 105 40 1 0 0;
