#N canvas -3 22 1230 553 10;
#X obj 682 290 h_vector;
#X obj 590 -122 metro;
#X obj 553 139 list-nth;
#X obj 838 -13 random;
#X obj 659 -94 list length;
#X obj 407 -194 inlet;
#X obj 947 63 inlet;
#X obj 522 628 tabplay~;
#X obj 947 92 symbol;
#X obj 591 634 tabplay~;
#X obj 652 634 tabplay~;
#X obj 708 636 tabplay~;
#X obj 774 638 tabplay~;
#X obj 839 642 tabplay~;
#X obj 705 506 + 1;
#X obj 637 483 t a b;
#X obj 631 561 prepend;
#X msg 682 257 get \$1;
#X obj 730 393 / 44.1;
#X obj 552 92 t b f;
#X obj 553 117 list;
#X obj 669 512 f;
#X obj 553 305 h_vector;
#X obj 553 242 + 1;
#X msg 553 283 get \$1;
#X obj 553 329 list split 4;
#X obj 683 315 unpack s f f s f;
#X obj 639 402 pack f f;
#X obj 790 388 s \$0audio-buffer;
#X obj 1158 625 r \$0audio-buffer;
#X msg 790 343 set \$1;
#X floatatom 639 175 5 0 0 0 - - -;
#X obj 553 162 t f f;
#X obj 639 377 -;
#X msg 637 459 \$2 \$1;
#X obj 730 426 *;
#X obj 639 431 spigot;
#X obj 680 340 sel note silence;
#X msg 680 366 1;
#X msg 726 368 0;
#X obj 629 585 route 0 1 2 3 4 5 6 7 8 9;
#X obj 705 530 mod 10;
#X obj 904 643 tabplay~;
#X obj 965 643 tabplay~;
#X obj 1021 645 tabplay~;
#X obj 1087 647 tabplay~;
#X obj 1152 651 tabplay~;
#X obj 735 692 outlet~;
#X obj 724 -9 urn;
#X msg 753 -7 clear;
#X obj 582 -7 + 1;
#X obj 582 15 mod;
#X obj 552 -7 f 0;
#X obj 568 -52 t b f;
#X msg 568 -28 0;
#X obj 631 -13 drunk 10 3;
#X obj 552 -89 gate 4;
#X obj 853 693 outlet~;
#X obj 408 -147 list-map;
#X msg 724 129 getsize;
#X obj 407 -172 t l b;
#X obj 517 -174 - 1;
#X obj 466 -145 split 1 2;
#X obj 755 428 r \$0rate;
#X obj 590 -158 r \$0on/off;
#X obj 552 -186 r \$0mode;
#X obj 2 2 cnv 15 337 65 empty empty PLAYER 138 12 2 14 -203904 -66577
0;
#X obj 243 43 nbx 5 14 -1e+037 1e+037 0 0 \$0rate empty Rhythmic-rate
0 -8 0 10 -262144 -1 -1 0.74 256;
#X obj 4 38 tgl 15 0 \$0on/off empty on/off 17 7 0 10 -262144 -1 -1
0 1;
#X obj 67 43 hradio 15 1 0 4 \$0mode empty sequence/sneak/serial/random
0 -8 0 10 -262144 -1 -1 0;
#X text 63 17 MODE;
#X obj 553 -131 + 1;
#X msg 947 122 namespace tempo\$1;
#X floatatom 303 4 5 0 0 0 - - -;
#X obj 688 -43 limit 2 3 0;
#X floatatom 459 393 12 0 0 0 - - -;
#X floatatom 889 338 12 0 0 0 - - -;
#X obj 659 -46 - 1;
#X obj 553 217 moses;
#X obj 580 244 t b;
#X obj 772 362 arraysize;
#X obj 580 197 - 1;
#X connect 0 0 26 0;
#X connect 0 1 61 0;
#X connect 0 1 81 0;
#X connect 1 0 56 1;
#X connect 2 0 32 0;
#X connect 2 0 73 0;
#X connect 3 0 19 0;
#X connect 4 0 53 0;
#X connect 4 0 48 1;
#X connect 4 0 3 1;
#X connect 4 0 74 0;
#X connect 4 0 77 0;
#X connect 5 0 60 0;
#X connect 6 0 8 0;
#X connect 7 0 47 0;
#X connect 8 0 72 0;
#X connect 9 0 57 0;
#X connect 10 0 47 0;
#X connect 11 0 57 0;
#X connect 12 0 47 0;
#X connect 13 0 57 0;
#X connect 14 0 41 0;
#X connect 15 0 16 0;
#X connect 15 1 21 0;
#X connect 16 0 40 0;
#X connect 17 0 0 0;
#X connect 18 0 35 0;
#X connect 19 0 20 0;
#X connect 19 1 2 1;
#X connect 20 0 2 0;
#X connect 21 0 14 0;
#X connect 21 0 16 1;
#X connect 22 0 25 0;
#X connect 23 0 24 0;
#X connect 24 0 22 0;
#X connect 25 1 33 0;
#X connect 25 1 75 0;
#X connect 26 0 37 0;
#X connect 26 2 18 0;
#X connect 26 3 30 0;
#X connect 26 4 33 1;
#X connect 26 4 27 1;
#X connect 26 4 76 0;
#X connect 27 0 36 0;
#X connect 29 0 7 0;
#X connect 29 0 9 0;
#X connect 29 0 10 0;
#X connect 29 0 11 0;
#X connect 29 0 12 0;
#X connect 29 0 13 0;
#X connect 29 0 42 0;
#X connect 29 0 43 0;
#X connect 29 0 44 0;
#X connect 29 0 45 0;
#X connect 29 0 46 0;
#X connect 30 0 28 0;
#X connect 30 0 80 0;
#X connect 31 0 17 0;
#X connect 31 0 23 0;
#X connect 32 0 78 0;
#X connect 32 1 17 0;
#X connect 33 0 27 0;
#X connect 34 0 15 0;
#X connect 35 0 1 1;
#X connect 36 0 34 0;
#X connect 37 0 38 0;
#X connect 37 1 39 0;
#X connect 38 0 36 1;
#X connect 39 0 36 1;
#X connect 40 0 7 0;
#X connect 40 1 9 0;
#X connect 40 2 10 0;
#X connect 40 3 11 0;
#X connect 40 4 12 0;
#X connect 40 5 13 0;
#X connect 40 6 42 0;
#X connect 40 7 43 0;
#X connect 40 8 44 0;
#X connect 40 9 45 0;
#X connect 40 9 46 0;
#X connect 41 0 21 1;
#X connect 42 0 47 0;
#X connect 43 0 57 0;
#X connect 44 0 47 0;
#X connect 45 0 57 0;
#X connect 46 0 47 0;
#X connect 48 0 19 0;
#X connect 48 1 49 0;
#X connect 49 0 48 0;
#X connect 50 0 51 0;
#X connect 51 0 52 1;
#X connect 52 0 50 0;
#X connect 52 0 19 0;
#X connect 53 0 54 0;
#X connect 53 1 51 1;
#X connect 54 0 52 1;
#X connect 55 0 19 0;
#X connect 56 0 52 0;
#X connect 56 1 55 0;
#X connect 56 2 48 0;
#X connect 56 3 3 0;
#X connect 58 0 4 0;
#X connect 58 0 20 1;
#X connect 58 1 62 0;
#X connect 59 0 0 0;
#X connect 60 0 58 0;
#X connect 60 1 59 0;
#X connect 61 0 62 2;
#X connect 62 0 58 1;
#X connect 63 0 35 1;
#X connect 64 0 1 0;
#X connect 65 0 71 0;
#X connect 71 0 56 0;
#X connect 72 0 0 0;
#X connect 72 0 22 0;
#X connect 74 0 55 2;
#X connect 77 0 55 1;
#X connect 78 0 23 0;
#X connect 78 1 79 0;
#X connect 79 0 80 0;
#X connect 80 0 33 0;
#X connect 81 0 78 1;
#X coords 0 -1 1 1 340 70 1 0 0;
