#N canvas 239 56 933 387 10;
#X obj 123 -194 inlet;
#N canvas 297 26 865 630 graphic 0;
#X obj 494 400 quantize;
#X obj 622 407 quantize;
#X obj 339 279 *;
#X obj 256 279 *;
#X obj 338 301 quantize 1;
#X obj 255 303 quantize 1;
#X obj 631 378 -;
#X obj 645 355 t b f;
#X obj 334 590 s \$0selection;
#X msg 191 531 vis_size \$1 27;
#X msg 595 436 vis_size \$1 27;
#X obj 227 28 list-compare;
#X msg 488 436 pos \$1 145;
#X obj 193 -21 r global-recording;
#X obj 193 1 list split 1;
#X obj 315 -12 inlet;
#X obj 194 50 spigot;
#X msg 320 512 pos \$1 145;
#X obj 70 217 spigot;
#X obj 104 188 r \$0follow;
#X obj 145 218 r \$0last;
#X floatatom 407 382 5 0 0 0 - - -;
#X obj 555 332 r \$0size;
#X obj 194 77 s \$0size;
#X obj 189 239 r \$0size;
#X obj 70 115 r \$0size;
#X obj 642 166 r \$0fim;
#X obj 500 163 r \$0inicio;
#X obj 543 232 h_vector;
#X msg 543 211 getsize;
#X obj 500 191 t f b;
#X obj 642 188 t f b;
#X obj 565 282 s \$0size;
#X floatatom 314 105 5 0 0 0 - - -;
#X floatatom 539 297 5 0 0 0 - - -;
#X obj 555 360 expr 695/$f1;
#X obj 496 346 * 695;
#X obj 630 320 * 695;
#X obj 194 437 * 695;
#X obj 500 493 / 695;
#X obj 592 514 / 695;
#X obj 498 541 s \$0inicio2;
#X obj 592 535 s \$0fim2;
#X obj 252 214 r \$0fim2;
#X obj 338 215 r \$0inicio2;
#X floatatom 127 45 5 0 0 0 - - -;
#X floatatom 463 250 5 0 0 0 - - -;
#X floatatom 648 235 5 0 0 0 - - -;
#X obj 593 490 +;
#X obj 591 461 t b f;
#X floatatom 374 343 5 0 0 0 - - -;
#X obj 43 291 t b f;
#X obj 43 315 s \$0send;
#X obj 70 161 spigot;
#X obj 320 452 * 695;
#X obj 71 241 expr $f1-$f2 \; $f1;
#X obj 242 460 expr 695-$f1;
#X floatatom 258 138 5 0 0 0 - - -;
#X obj 72 381 outlet;
#X obj 139 370 outlet;
#X obj 194 397 expr (1/$f1)*($f2-$f3) \; (1/$f1)*$f3;
#X floatatom 152 459 5 0 0 0 - - -;
#X floatatom 367 440 5 0 0 0 - - -;
#X floatatom 143 524 5 0 0 0 - - -;
#X floatatom 409 494 5 0 0 0 - - -;
#X floatatom 147 493 5 0 0 0 - - -;
#X floatatom 521 522 5 0 0 0 - - -;
#X floatatom 282 507 5 0 0 0 - - -;
#X floatatom 222 576 5 0 0 0 - - -;
#X obj 195 492 split 0 695;
#X obj 317 483 split 0 695;
#X msg 314 35 namespace tempo\$1;
#X obj 566 254 - 1;
#X connect 0 0 7 0;
#X connect 0 0 12 0;
#X connect 0 0 39 0;
#X connect 0 0 48 0;
#X connect 1 0 10 0;
#X connect 1 0 49 0;
#X connect 2 0 4 0;
#X connect 3 0 5 0;
#X connect 4 0 50 0;
#X connect 4 0 60 2;
#X connect 4 0 58 0;
#X connect 5 0 21 0;
#X connect 5 0 59 0;
#X connect 5 0 60 1;
#X connect 6 0 1 0;
#X connect 7 0 6 0;
#X connect 7 1 6 1;
#X connect 9 0 8 0;
#X connect 10 0 8 0;
#X connect 11 0 16 1;
#X connect 11 0 53 1;
#X connect 11 0 57 0;
#X connect 12 0 8 0;
#X connect 13 0 14 0;
#X connect 14 0 16 0;
#X connect 14 1 11 0;
#X connect 15 0 71 0;
#X connect 15 0 11 1;
#X connect 16 0 23 0;
#X connect 16 0 33 0;
#X connect 17 0 8 0;
#X connect 18 0 55 0;
#X connect 19 0 18 1;
#X connect 20 0 55 1;
#X connect 22 0 35 0;
#X connect 24 0 2 1;
#X connect 24 0 3 1;
#X connect 24 0 60 0;
#X connect 25 0 53 0;
#X connect 26 0 31 0;
#X connect 27 0 30 0;
#X connect 28 1 34 0;
#X connect 28 1 72 0;
#X connect 29 0 28 0;
#X connect 30 0 36 0;
#X connect 30 0 46 0;
#X connect 30 1 29 0;
#X connect 31 0 37 0;
#X connect 31 0 47 0;
#X connect 31 1 29 0;
#X connect 35 0 0 1;
#X connect 35 0 1 1;
#X connect 36 0 0 0;
#X connect 37 0 6 0;
#X connect 38 0 65 0;
#X connect 38 0 69 0;
#X connect 39 0 41 0;
#X connect 39 0 66 0;
#X connect 40 0 42 0;
#X connect 43 0 3 0;
#X connect 44 0 2 0;
#X connect 45 0 23 0;
#X connect 48 0 40 0;
#X connect 49 0 48 0;
#X connect 49 1 48 1;
#X connect 51 0 52 0;
#X connect 53 0 18 0;
#X connect 54 0 56 0;
#X connect 54 0 70 0;
#X connect 55 0 51 0;
#X connect 55 0 60 2;
#X connect 55 0 58 0;
#X connect 55 1 59 0;
#X connect 55 1 60 1;
#X connect 56 0 67 0;
#X connect 56 0 69 2;
#X connect 60 0 38 0;
#X connect 60 0 61 0;
#X connect 60 1 54 0;
#X connect 60 1 62 0;
#X connect 69 0 9 0;
#X connect 69 0 63 0;
#X connect 69 1 68 0;
#X connect 70 0 17 0;
#X connect 70 0 64 0;
#X connect 71 0 28 0;
#X connect 72 0 32 0;
#X restore 123 -127 pd graphic;
#X obj 24 -22 h_vector;
#X msg 24 -48 get \$1;
#X msg 304 -62 get \$1;
#X obj 304 -37 h_vector;
#X obj 81 27 / 44100;
#X obj 1 103 cnv 10 693 100 empty empty SLICER 295 15 2 20 -228856
-66577 0;
#X obj 3 186 nbx 5 14 -1e+037 1e+037 0 0 empty empty ini-event 0 -5
0 10 -262144 -1 -1 16 256;
#X obj 572 185 nbx 5 14 -1e+037 1e+037 0 0 empty \$0finalevent empty
0 -5 0 10 -262144 -1 -1 44 256;
#X obj 63 186 nbx 5 14 -1e+037 1e+037 0 0 empty empty ini-time 0 -5
0 10 -262144 -1 -1 13.8739 256;
#X obj 629 184 nbx 5 14 -1e+037 1e+037 0 0 empty empty end-time 0 -5
0 10 -262144 -1 -1 20.7006 256;
#X obj 4 144 hsl 688 15 0 1 0 0 \$0inicio empty empty -2 -8 0 10 -191407
-191407 -1 15700 0;
#X obj 4 158 hsl 688 15 0 1 0 0 \$0fim empty empty -2 -8 0 10 -191407
-191407 -1 44100 0;
#X obj 163 145 cnv 2 286 27 empty \$0selection empty 20 12 0 14 -257985
-66577 0;
#X obj 276 188 cnv 7 100 5 empty \$0slice-buffer one 20 0 0 18 -233017
-33289 0;
#X obj 123 -174 symbol;
#X obj 142 30 outlet;
#X obj 274 -114 s \$0slice-buffer;
#X msg 280 -146 label \$1;
#X obj 24 0 unpack s f;
#X obj 304 -12 unpack s f f;
#X obj 304 17 expr $f1/44100+$f2/44100;
#X obj 6 115 bng 15 250 50 0 empty \$0send Send 17 7 0 10 -262144 -257985
-1;
#X obj 142 9 list;
#X obj 158 -41 for++ 0 1;
#X obj 160 -16 list prepend;
#X obj 243 -16 t a;
#X obj 157 -73 t b b;
#X obj 550 113 tgl 15 0 \$0follow empty Follow 17 7 0 10 -262144 -1
-1 0 1;
#X obj 614 115 nbx 5 14 -1e+037 1e+037 0 0 \$0last empty Last 0 -5
0 10 -262144 -1 -1 0 256;
#X msg 146 -147 namespace tempo\$1;
#X connect 0 0 16 0;
#X connect 1 0 3 0;
#X connect 1 0 8 0;
#X connect 1 0 25 0;
#X connect 1 1 4 0;
#X connect 1 1 25 1;
#X connect 1 1 9 0;
#X connect 2 0 20 0;
#X connect 3 0 2 0;
#X connect 4 0 5 0;
#X connect 5 0 21 0;
#X connect 6 0 10 0;
#X connect 16 0 31 0;
#X connect 16 0 1 0;
#X connect 16 0 19 0;
#X connect 19 0 18 0;
#X connect 20 1 6 0;
#X connect 21 1 22 0;
#X connect 21 2 22 1;
#X connect 22 0 11 0;
#X connect 23 0 28 0;
#X connect 24 0 17 0;
#X connect 25 0 26 0;
#X connect 25 1 24 0;
#X connect 26 0 27 0;
#X connect 26 0 24 1;
#X connect 27 0 26 1;
#X connect 28 0 25 0;
#X connect 28 1 26 1;
#X connect 31 0 2 0;
#X connect 31 0 5 0;
#X coords 0 -1 1 1 695 106 1 0 100;
