#N canvas 360 176 949 505 10;
#X obj 738 -35 inlet;
#X msg 738 20 namespace timbre\$1;
#X obj 624 -69 loadbang;
#X msg 624 -40 1;
#X obj 575 -88 inlet;
#X obj 738 -5 symbol;
#X obj 555 219 list;
#X obj 575 -57 t l b;
#X obj 555 243 sort;
#X obj 554 268 outlet;
#X obj 516 -12 r \$0mode;
#X obj 705 112 list length;
#X obj 705 150 s \$0size;
#X obj 575 35 t l l;
#X obj 536 27 + 1;
#X obj 575 -12 silence-filter-2;
#X obj 26 376 s \$0region;
#X obj 25 158 r \$0lop;
#X obj 132 150 r \$0hip;
#X obj 128 297 expr (1-$f1)-(1-$f2);
#X obj 186 274 t b f;
#X obj 25 213 spigot;
#X obj 82 172 t b f;
#X obj 129 216 spigot;
#X obj 177 243 s \$0hip2;
#X obj 43 272 s \$0lop2;
#X obj 84 196 >=;
#X msg 128 352 vis_size 130 \$1;
#X obj 25 326 * 90;
#X obj 128 327 * 90;
#X obj 25 240 expr (1-$f1)+0.5;
#X msg 27 349 pos 133 \$1;
#X msg 768 148 resize \$1;
#X obj 768 170 s \$0_Difference;
#N canvas 454 0 521 504 mean 0;
#X obj 224 205 h_vector;
#X obj 224 231 list-add;
#X obj 282 231 t a;
#X obj 224 146 list-drip;
#X msg 224 182 get \$1;
#X obj 335 181 inlet;
#X obj 203 266 list;
#X obj 225 44 inlet;
#X obj 245 444 s \$0_Target-Timbre;
#X obj 245 392 list prepend 0;
#X obj 245 419 list trim;
#X obj 163 391 outlet;
#X obj 225 72 t b l b;
#X obj 225 122 list;
#X obj 130 183 r \$0mode;
#X obj 163 364 list;
#X obj 200 362 spigot;
#X obj 130 217 == 1;
#X obj 130 280 sel 1;
#X obj 130 245 t f f;
#X obj 203 292 list-apply /;
#X obj 272 268 r \$0size;
#X connect 0 0 1 0;
#X connect 1 0 2 0;
#X connect 1 0 6 1;
#X connect 2 0 1 1;
#X connect 3 0 4 0;
#X connect 3 1 6 0;
#X connect 4 0 0 0;
#X connect 5 0 0 0;
#X connect 6 0 20 0;
#X connect 7 0 12 0;
#X connect 9 0 10 0;
#X connect 10 0 8 0;
#X connect 12 0 13 0;
#X connect 12 1 13 1;
#X connect 12 2 1 1;
#X connect 13 0 3 0;
#X connect 14 0 17 0;
#X connect 15 0 11 0;
#X connect 15 0 9 0;
#X connect 16 0 11 0;
#X connect 16 0 9 0;
#X connect 17 0 19 0;
#X connect 18 0 15 0;
#X connect 19 0 18 0;
#X connect 19 1 16 1;
#X connect 20 0 15 1;
#X connect 20 0 16 0;
#X connect 21 0 20 2;
#X restore 568 98 pd mean;
#N canvas 76 38 291 368 target 0;
#X obj 112 184 h_vector;
#X obj 112 130 list-nth;
#X obj 134 324 s \$0_Target-Timbre;
#X obj 134 272 list prepend 0;
#X obj 134 299 list trim;
#X msg 112 155 get \$1;
#X obj 112 106 list;
#X obj 112 76 t b f;
#X obj 133 49 inlet;
#X obj 72 271 outlet;
#X obj 220 134 inlet;
#X obj 48 42 r \$0mode;
#X obj 48 67 == 2;
#X obj 112 212 spigot;
#X obj 112 24 r \$0target;
#X floatatom 200 81 5 0 0 0 - - -;
#X connect 0 0 13 0;
#X connect 1 0 5 0;
#X connect 3 0 4 0;
#X connect 4 0 2 0;
#X connect 5 0 0 0;
#X connect 6 0 1 0;
#X connect 7 0 6 0;
#X connect 7 1 1 1;
#X connect 8 0 6 1;
#X connect 10 0 0 0;
#X connect 11 0 12 0;
#X connect 12 0 13 1;
#X connect 13 0 3 0;
#X connect 13 0 9 0;
#X connect 14 0 7 0;
#X connect 14 0 15 0;
#X restore 599 143 pd target;
#N canvas 197 0 465 709 distance-filter 0;
#X obj 116 295 expr pow($f1-$f2 \, 2);
#X obj 143 345 f;
#X obj 116 268 list-drip2;
#X obj 173 240 list;
#X obj 101 421 sqrt;
#X obj 101 399 f;
#X obj 116 104 list;
#X obj 116 128 list-drip;
#X obj 116 151 t f f;
#X obj 76 583 f;
#X obj 55 680 outlet;
#X obj 116 199 h_vector;
#X msg 116 176 get \$1;
#X obj 116 223 t l b b;
#X msg 141 318 0;
#X obj 116 345 + 0;
#X obj 178 31 inlet;
#X obj 101 505 moses;
#X obj 128 532 moses;
#X obj 128 559 b;
#X obj 160 614 t a;
#X obj 55 647 list;
#X obj 349 145 inlet;
#X obj 116 366 / 24;
#X obj 116 -1 inlet;
#X obj 116 35 t b l b;
#X obj 328 479 t a;
#X obj 224 507 list;
#X obj 224 529 list prepend 0;
#X obj 224 553 list trim;
#X obj 224 574 s \$0_Difference;
#X obj 134 476 r \$0hip2;
#X obj 156 503 r \$0lop2;
#X floatatom 176 554 5 0 0 0 - - -;
#X floatatom 165 586 5 0 0 0 - - -;
#X obj 242 35 r \$0change;
#X obj 242 55 t b b;
#X obj 245 478 list prepend;
#X obj 76 613 list prepend;
#X connect 0 0 15 0;
#X connect 1 0 15 1;
#X connect 2 0 0 0;
#X connect 2 1 0 1;
#X connect 2 2 5 0;
#X connect 3 0 2 1;
#X connect 4 0 17 0;
#X connect 4 0 37 0;
#X connect 5 0 4 0;
#X connect 6 0 7 0;
#X connect 7 0 8 0;
#X connect 7 1 21 0;
#X connect 7 1 27 0;
#X connect 8 0 12 0;
#X connect 8 1 9 1;
#X connect 9 0 38 0;
#X connect 11 0 13 0;
#X connect 12 0 11 0;
#X connect 13 0 2 0;
#X connect 13 1 3 0;
#X connect 13 2 14 0;
#X connect 14 0 15 1;
#X connect 15 0 1 0;
#X connect 15 0 23 0;
#X connect 16 0 6 1;
#X connect 17 1 18 0;
#X connect 18 0 19 0;
#X connect 19 0 9 0;
#X connect 20 0 38 1;
#X connect 21 0 10 0;
#X connect 22 0 11 0;
#X connect 23 0 5 1;
#X connect 24 0 25 0;
#X connect 25 0 6 0;
#X connect 25 1 3 1;
#X connect 25 2 37 1;
#X connect 25 2 38 1;
#X connect 26 0 37 1;
#X connect 27 0 28 0;
#X connect 28 0 29 0;
#X connect 29 0 30 0;
#X connect 31 0 17 1;
#X connect 31 0 33 0;
#X connect 32 0 18 1;
#X connect 32 0 34 0;
#X connect 35 0 36 0;
#X connect 36 0 6 0;
#X connect 36 1 37 1;
#X connect 36 1 38 1;
#X connect 37 0 26 0;
#X connect 37 0 27 1;
#X connect 38 0 20 0;
#X connect 38 0 21 1;
#X restore 564 192 pd distance-filter;
#X obj 323 301 del 500;
#X obj 323 330 s \$0change;
#X obj 542 56 gate 2;
#X obj 1 3 cnv 15 448 134 empty empty Timbre_Filter 10 10 0 14 -233017
-66577 0;
#N canvas 0 0 450 300 (subpatch) 0;
#X array \$0_Target-Timbre 24 float 1;
#A 0 1 0.144474 -0.165266 -0.193669 -0.440467 -0.732166 -0.784281 -0.615987
-0.370123 -0.0515152 0.255717 0.404787 0.388788 0.393149 0.498103 0.566464
0.427138 0.0968299 -0.379803 -0.861021 -0.966115 -0.540667 -0.085907
1.07138e-005;
#X coords 0 1 23 -1 130 90 1;
#X restore 304 45 graph;
#X obj 397 15 nbx 3 14 0 6 0 0 \$0target empty Target 8 -8 0 10 -262144
-1 -1 0 256;
#X obj 397 -78 r \$0size;
#X msg 397 -24 range 0 \$1;
#X obj 397 -52 - 1;
#X obj 121 47 vsl 10 85 0 1 0 0 \$0lop empty Lop -20 30 0 10 -162280
-1 -1 0 0;
#X obj 133 90 cnv 1 130 33 empty \$0region empty 20 12 0 14 -257985
-66577 0;
#N canvas 0 0 450 300 (subpatch) 0;
#X array \$0_Difference 7 float 3;
#A 0 0.814186 0 0 0 0 0 0;
#X coords 0 1 7 0 130 90 1;
#X restore 132 45 graph;
#X obj 262 47 vsl 10 85 0 1 0 0 \$0hip empty Hip 11 30 0 10 -162280
-1 -1 0 0;
#X obj 8 41 vradio 15 1 0 3 \$0mode empty MODE -3 -8 0 10 -262144 -1
-1 0;
#X text 26 39 Bypass;
#X text 26 56 Mean;
#X text 24 72 Target;
#X connect 0 0 5 0;
#X connect 0 0 15 2;
#X connect 1 0 36 2;
#X connect 1 0 34 1;
#X connect 1 0 35 1;
#X connect 2 0 3 0;
#X connect 3 0 15 1;
#X connect 4 0 7 0;
#X connect 5 0 1 0;
#X connect 6 0 8 0;
#X connect 7 0 15 0;
#X connect 7 1 6 1;
#X connect 8 0 9 0;
#X connect 10 0 14 0;
#X connect 11 0 12 0;
#X connect 11 0 32 0;
#X connect 13 0 39 1;
#X connect 13 1 11 0;
#X connect 13 1 36 1;
#X connect 13 1 35 0;
#X connect 14 0 39 0;
#X connect 15 0 13 0;
#X connect 15 1 6 1;
#X connect 17 0 21 0;
#X connect 17 0 26 0;
#X connect 18 0 22 0;
#X connect 18 0 23 0;
#X connect 19 0 29 0;
#X connect 20 0 19 0;
#X connect 20 1 19 1;
#X connect 21 0 20 0;
#X connect 21 0 25 0;
#X connect 21 0 30 0;
#X connect 21 0 37 0;
#X connect 22 0 26 0;
#X connect 22 1 26 1;
#X connect 23 0 19 0;
#X connect 23 0 24 0;
#X connect 23 0 37 0;
#X connect 26 0 21 1;
#X connect 26 0 23 1;
#X connect 27 0 16 0;
#X connect 28 0 31 0;
#X connect 29 0 27 0;
#X connect 30 0 28 0;
#X connect 31 0 16 0;
#X connect 32 0 33 0;
#X connect 34 0 36 0;
#X connect 35 0 36 0;
#X connect 36 0 6 0;
#X connect 37 0 38 0;
#X connect 39 0 6 0;
#X connect 39 1 34 0;
#X connect 43 0 45 0;
#X connect 44 0 42 0;
#X connect 45 0 44 0;
#X coords 0 -1 1 1 450 140 1 0 0;
